<svg xmlns="http://www.w3.org/2000/svg" xmlns:xlink="http://www.w3.org/1999/xlink" width="500" zoomAndPan="magnify" viewBox="0 0 375 374.999991" height="500" preserveAspectRatio="xMidYMid meet" version="1.0"><defs><clipPath id="97f7638ffc"><path d="M 38.507812 38.507812 L 336.492188 38.507812 L 336.492188 336.492188 L 38.507812 336.492188 Z M 38.507812 38.507812 " clip-rule="nonzero"/></clipPath><clipPath id="f85715296c"><path d="M 187.5 38.507812 C 105.214844 38.507812 38.507812 105.214844 38.507812 187.5 C 38.507812 269.785156 105.214844 336.492188 187.5 336.492188 C 269.785156 336.492188 336.492188 269.785156 336.492188 187.5 C 336.492188 105.214844 269.785156 38.507812 187.5 38.507812 Z M 187.5 38.507812 " clip-rule="nonzero"/></clipPath><clipPath id="ba788bb776"><path d="M 38.507812 38.507812 L 336.257812 38.507812 L 336.257812 336.257812 L 38.507812 336.257812 Z M 38.507812 38.507812 " clip-rule="nonzero"/></clipPath><clipPath id="98da970a07"><path d="M 187.496094 38.507812 C 105.210938 38.507812 38.507812 105.210938 38.507812 187.496094 C 38.507812 269.777344 105.210938 336.480469 187.496094 336.480469 C 269.777344 336.480469 336.480469 269.777344 336.480469 187.496094 C 336.480469 105.210938 269.777344 38.507812 187.496094 38.507812 Z M 187.496094 38.507812 " clip-rule="nonzero"/></clipPath><clipPath id="be1a7ca19f"><path d="M 44.6875 44.6875 L 330.3125 44.6875 L 330.3125 330.3125 L 44.6875 330.3125 Z M 44.6875 44.6875 " clip-rule="nonzero"/></clipPath><clipPath id="ec6cffeaab"><path d="M 187.5 44.6875 C 108.625 44.6875 44.6875 108.625 44.6875 187.5 C 44.6875 266.375 108.625 330.3125 187.5 330.3125 C 266.375 330.3125 330.3125 266.375 330.3125 187.5 C 330.3125 108.625 266.375 44.6875 187.5 44.6875 Z M 187.5 44.6875 " clip-rule="nonzero"/></clipPath><clipPath id="cbe8abff3b"><path d="M 130.226562 94.007812 L 267 94.007812 L 267 265.007812 L 130.226562 265.007812 Z M 130.226562 94.007812 " clip-rule="nonzero"/></clipPath></defs><g clip-path="url(#97f7638ffc)"><g clip-path="url(#f85715296c)"><path fill="#ffffff" d="M 38.507812 38.507812 L 336.492188 38.507812 L 336.492188 336.492188 L 38.507812 336.492188 Z M 38.507812 38.507812 " fill-opacity="1" fill-rule="nonzero"/></g></g><g clip-path="url(#ba788bb776)"><g clip-path="url(#98da970a07)"><path stroke-linecap="butt" transform="matrix(0.75, 0, 0, 0.75, 38.509213, 38.509209)" fill="none" stroke-linejoin="miter" d="M 198.649187 -0.00186199 C 88.935638 -0.00186199 -0.00186799 88.935644 -0.00186799 198.649193 C -0.00186799 308.357533 88.935638 397.295039 198.649187 397.295039 C 308.357527 397.295039 397.295033 308.357533 397.295033 198.649193 C 397.295033 88.935644 308.357527 -0.00186199 198.649187 -0.00186199 Z M 198.649187 -0.00186199 " stroke="#000000" stroke-width="2" stroke-opacity="1" stroke-miterlimit="4"/></g></g><g clip-path="url(#be1a7ca19f)"><g clip-path="url(#ec6cffeaab)"><path fill="#e1ebd8" d="M 44.6875 44.6875 L 330.3125 44.6875 L 330.3125 330.3125 L 44.6875 330.3125 Z M 44.6875 44.6875 " fill-opacity="1" fill-rule="nonzero"/></g></g><path fill="#dbc1ac" d="M 261.734375 179.984375 C 258.828125 174.820312 254.46875 171.347656 249.128906 169.933594 C 244.667969 168.753906 240.199219 169.199219 236.445312 170.144531 L 236.445312 161.6875 C 236.445312 150.644531 213.066406 141.695312 184.230469 141.695312 C 155.394531 141.695312 132.015625 150.644531 132.015625 161.6875 L 132.015625 243.375 C 132.015625 254.414062 155.394531 263.367188 184.230469 263.367188 C 213.070312 263.367188 236.449219 254.417969 236.449219 243.375 L 236.449219 228.113281 C 248.261719 224.710938 257.882812 216.65625 262.464844 206.21875 C 266.363281 197.3125 266.101562 187.753906 261.734375 179.984375 Z M 248.484375 200.042969 C 246.269531 205.097656 241.945312 209.257812 236.445312 211.8125 L 236.445312 186.324219 C 238.734375 185.289062 242.5 184.015625 245.269531 184.765625 C 246.15625 185.003906 247.316406 185.535156 248.4375 187.519531 C 250.414062 191.039062 250.429688 195.601562 248.484375 200.042969 Z M 248.484375 200.042969 " fill-opacity="1" fill-rule="nonzero"/><path fill="#65402e" d="M 222.40625 159.441406 C 222.40625 164.941406 205.316406 169.402344 184.230469 169.402344 C 163.148438 169.402344 146.054688 164.941406 146.054688 159.441406 C 146.054688 157.007812 149.398438 154.78125 154.949219 153.050781 C 151.753906 148.480469 147.894531 141.164062 147.523438 132.128906 C 146.882812 116.488281 155.421875 116.277344 158.195312 116.488281 C 160.96875 116.703125 164.597656 120.773438 164.8125 129.558594 C 165.023438 138.339844 169.507812 139.625 172.066406 139.410156 C 174.628906 139.199219 178.042969 132.769531 183.589844 133.84375 C 189.140625 134.914062 190.207031 138.554688 191.914062 143.050781 C 192.808594 145.410156 193.679688 147.90625 194.746094 149.859375 C 199 150.179688 202.953125 150.683594 206.460938 151.339844 C 207.945312 150.527344 209.554688 149.824219 211.757812 149.902344 C 213.933594 149.984375 215.277344 151.808594 216.125 153.960938 C 220.097656 155.535156 222.40625 157.417969 222.40625 159.441406 Z M 151.898438 109.851562 C 155.964844 109.851562 159.261719 106.542969 159.261719 102.460938 C 159.261719 98.378906 155.964844 95.074219 151.898438 95.074219 C 147.832031 95.074219 144.53125 98.382812 144.53125 102.464844 C 144.53125 106.546875 147.832031 109.851562 151.898438 109.851562 Z M 151.898438 109.851562 " fill-opacity="1" fill-rule="nonzero"/><path fill="#ff938d" d="M 166.832031 224.664062 C 166.292969 227.003906 161.707031 227.9375 156.582031 226.75 C 151.460938 225.5625 147.746094 222.703125 148.285156 220.363281 C 148.824219 218.023438 153.410156 217.089844 158.535156 218.277344 C 163.65625 219.46875 167.371094 222.324219 166.832031 224.664062 Z M 224.691406 220.363281 C 224.15625 218.023438 219.566406 217.089844 214.445312 218.28125 C 209.324219 219.464844 205.605469 222.324219 206.144531 224.664062 C 206.6875 227.003906 211.273438 227.9375 216.394531 226.75 C 221.515625 225.5625 225.230469 222.703125 224.691406 220.363281 Z M 224.691406 220.363281 " fill-opacity="1" fill-rule="nonzero"/><path fill="#ffffff" d="M 157.167969 124.257812 C 157.167969 125.710938 155.996094 126.886719 154.550781 126.886719 C 153.101562 126.886719 151.933594 125.710938 151.933594 124.257812 C 151.933594 122.808594 153.101562 121.632812 154.550781 121.632812 C 155.996094 121.632812 157.167969 122.808594 157.167969 124.257812 Z M 154.335938 97.570312 C 152.890625 97.570312 151.71875 98.746094 151.71875 100.199219 C 151.71875 101.648438 152.890625 102.824219 154.335938 102.824219 C 155.785156 102.824219 156.953125 101.648438 156.953125 100.199219 C 156.953125 98.746094 155.785156 97.570312 154.335938 97.570312 Z M 193.761719 178.585938 C 189.058594 179.011719 184.417969 179.5 179.6875 179.449219 C 175.214844 179.402344 170.726562 179.050781 166.292969 178.457031 C 161.773438 177.851562 157.273438 177.21875 152.894531 175.875 C 148.390625 174.488281 144.121094 173.660156 139.839844 171.6875 C 138.015625 170.84375 137.574219 172.449219 139.414062 173.402344 C 143.730469 175.632812 146.859375 177.683594 151.480469 179.199219 C 155.992188 180.675781 160.582031 182.261719 165.253906 183.160156 C 174.78125 184.996094 184.855469 185.34375 194.503906 184.078125 C 199.738281 183.394531 199.023438 178.113281 193.761719 178.585938 Z M 208.449219 178.820312 C 207.859375 177.78125 206.609375 177.164062 205.3125 177.253906 C 203.597656 177.371094 200.703125 178.820312 201.019531 180.960938 C 201.246094 182.511719 203.484375 183.519531 204.886719 183.363281 C 206.527344 183.183594 208.382812 182.585938 208.742188 180.734375 C 208.882812 180.011719 208.753906 179.359375 208.449219 178.820312 Z M 259.734375 185.058594 C 259.730469 185.011719 259.726562 184.960938 259.722656 184.914062 C 259.484375 181.890625 257.613281 178.683594 255.273438 176.828125 C 253.964844 175.796875 249.703125 173.371094 248.117188 174.828125 C 247.421875 175.472656 247.449219 177.105469 248.535156 177.34375 C 252.792969 178.273438 254.230469 182.621094 255.554688 186.191406 C 256.632812 189.113281 259.839844 187.792969 259.734375 185.058594 Z M 261.414062 192.59375 C 261.253906 191.671875 260.75 190.902344 259.699219 190.664062 C 257.996094 190.285156 256.40625 192.183594 256.585938 193.808594 C 257.042969 197.921875 262.132812 196.769531 261.414062 192.59375 Z M 158.183594 142.007812 C 157.648438 139.96875 157.433594 135.25 157.328125 131.285156 C 157.222656 127.316406 152.199219 128.386719 152.949219 133.320312 C 153.695312 138.253906 156.792969 142.007812 156.792969 142.007812 C 158.078125 143.722656 158.71875 144.042969 158.183594 142.007812 Z M 158.183594 142.007812 " fill-opacity="1" fill-rule="nonzero"/><g clip-path="url(#cbe8abff3b)"><path fill="#000000" d="M 263.15625 179.179688 C 260.03125 173.621094 255.324219 169.875 249.542969 168.347656 C 246.019531 167.417969 242.171875 167.339844 238.082031 168.105469 L 238.082031 161.6875 C 238.082031 150.722656 218.753906 141.910156 192.742188 140.316406 C 192.542969 139.816406 192.332031 139.308594 192.101562 138.792969 C 191.445312 137.332031 190.535156 135.742188 189.105469 134.550781 C 187.699219 133.328125 185.964844 132.667969 184.335938 132.328125 C 183.519531 132.144531 182.515625 132.074219 181.605469 132.167969 C 181.140625 132.214844 180.691406 132.328125 180.246094 132.429688 C 179.824219 132.585938 179.375 132.707031 178.984375 132.90625 C 177.382812 133.648438 176.082031 134.695312 174.949219 135.726562 L 173.3125 137.203125 C 172.808594 137.636719 172.25 138.015625 172.019531 138.078125 C 172 138.117188 171.792969 138.117188 171.660156 138.136719 C 171.511719 138.152344 171.367188 138.140625 171.214844 138.144531 C 170.917969 138.136719 170.625 138.105469 170.332031 138.042969 C 169.753906 137.925781 169.203125 137.691406 168.703125 137.359375 C 168.191406 137.035156 167.773438 136.554688 167.371094 136.046875 C 167.011719 135.503906 166.683594 134.914062 166.4375 134.265625 C 165.941406 132.972656 165.636719 131.546875 165.535156 130.09375 C 165.398438 128.621094 165.300781 127.046875 164.992188 125.550781 C 164.691406 124.046875 164.308594 122.546875 163.679688 121.128906 C 163.039062 119.726562 162.269531 118.320312 161.035156 117.253906 C 160.429688 116.726562 159.734375 116.238281 158.886719 116.007812 C 158.675781 115.957031 158.457031 115.921875 158.238281 115.882812 L 157.652344 115.832031 C 157.257812 115.820312 156.863281 115.800781 156.464844 115.820312 C 154.875 115.839844 153.238281 116.25 151.796875 117.101562 C 150.363281 117.945312 149.136719 119.203125 148.328125 120.640625 C 148.082031 120.984375 147.929688 121.359375 147.757812 121.734375 C 147.59375 122.109375 147.390625 122.476562 147.269531 122.859375 C 147.046875 123.628906 146.703125 124.394531 146.597656 125.179688 C 146.253906 126.746094 146.082031 128.320312 146.050781 129.882812 L 146.054688 132.222656 C 146.109375 133.003906 146.195312 133.78125 146.265625 134.558594 C 146.644531 137.664062 147.414062 140.703125 148.5625 143.582031 C 148.773438 144.105469 148.992188 144.617188 149.222656 145.125 C 137.628906 149.0625 130.378906 154.972656 130.378906 161.6875 L 130.378906 243.375 C 130.378906 255.503906 154.03125 265.007812 184.230469 265.007812 C 214.425781 265.007812 238.082031 255.503906 238.082031 243.375 L 238.082031 229.332031 C 249.929688 225.582031 259.320312 217.453125 263.957031 206.878906 C 268.074219 197.496094 267.78125 187.398438 263.15625 179.179688 Z M 260.964844 205.554688 C 256.566406 215.582031 247.464844 223.226562 235.996094 226.535156 L 234.808594 226.875 L 234.808594 243.371094 C 234.808594 252.234375 214.488281 261.71875 184.230469 261.71875 C 153.976562 261.71875 133.652344 252.234375 133.652344 243.375 L 133.652344 161.6875 C 133.652344 156.765625 139.933594 151.644531 150.707031 148.070312 C 151.402344 149.316406 152.164062 150.519531 152.988281 151.667969 C 153.058594 151.765625 153.128906 151.855469 153.195312 151.949219 C 151.949219 152.441406 150.714844 152.988281 149.511719 153.664062 C 148.734375 154.09375 147.976562 154.597656 147.246094 155.195312 C 146.527344 155.800781 145.820312 156.519531 145.320312 157.515625 C 144.8125 158.5 144.726562 159.886719 145.222656 160.910156 C 145.675781 161.953125 146.417969 162.632812 147.140625 163.207031 C 148.617188 164.320312 150.210938 165.003906 151.808594 165.585938 C 155.019531 166.722656 158.304688 167.378906 161.589844 167.878906 C 164.882812 168.367188 168.191406 168.660156 171.496094 168.832031 C 168.214844 168.390625 164.953125 167.824219 161.746094 167.074219 C 158.542969 166.3125 155.367188 165.390625 152.421875 164.066406 C 150.964844 163.398438 149.539062 162.617188 148.445312 161.628906 C 147.917969 161.136719 147.464844 160.585938 147.3125 160.066406 C 147.136719 159.550781 147.226562 159.128906 147.492188 158.652344 C 148.097656 157.691406 149.441406 156.847656 150.816406 156.222656 C 152.214844 155.582031 153.726562 155.09375 155.257812 154.671875 L 155.207031 154.503906 C 156.410156 155.910156 157.714844 157.21875 159.144531 158.382812 L 159.371094 158.144531 C 155.691406 153.445312 152.753906 148.234375 150.945312 142.707031 C 150.050781 139.941406 149.441406 137.109375 149.152344 134.25 C 148.867188 131.398438 148.890625 128.460938 149.273438 125.695312 C 149.335938 124.984375 149.550781 124.339844 149.679688 123.652344 C 149.75 123.308594 149.894531 123.007812 150 122.679688 C 150.117188 122.359375 150.207031 122.027344 150.375 121.738281 C 150.894531 120.488281 151.734375 119.425781 152.785156 118.617188 C 153.839844 117.800781 155.167969 117.324219 156.558594 117.164062 C 156.90625 117.109375 157.261719 117.109375 157.613281 117.09375 L 158.144531 117.105469 L 158.601562 117.164062 C 159.214844 117.292969 159.824219 117.621094 160.347656 118.066406 C 161.40625 118.953125 162.203125 120.203125 162.765625 121.527344 C 163.320312 122.863281 163.699219 124.289062 163.894531 125.742188 C 164.011719 126.464844 164.054688 127.199219 164.113281 127.929688 L 164.148438 130.164062 C 164.15625 131.707031 164.296875 133.277344 164.734375 134.839844 C 165.160156 136.390625 165.957031 137.972656 167.339844 139.140625 C 168.027344 139.710938 168.839844 140.160156 169.707031 140.425781 C 170.140625 140.558594 170.585938 140.640625 171.03125 140.691406 C 171.257812 140.703125 171.484375 140.734375 171.710938 140.730469 C 171.945312 140.722656 172.125 140.75 172.464844 140.675781 C 173.707031 140.429688 174.378906 139.859375 175.046875 139.382812 L 176.828125 137.941406 C 177.953125 137.023438 179.0625 136.226562 180.203125 135.761719 C 181.359375 135.273438 182.425781 135.246094 183.617188 135.542969 C 184.890625 135.855469 186.019531 136.355469 186.859375 137.144531 C 188.570312 138.667969 189.429688 141.507812 190.523438 144.328125 C 191.070312 145.714844 191.613281 147.140625 192.257812 148.574219 C 192.917969 149.996094 193.621094 151.464844 194.832031 152.820312 C 195.433594 153.488281 196.1875 154.148438 197.175781 154.5625 C 197.429688 154.648438 197.6875 154.730469 197.945312 154.808594 L 198.585938 154.917969 C 199.007812 155.003906 199.441406 155.042969 199.890625 155.050781 C 200.773438 155.105469 201.679688 154.953125 202.53125 154.726562 C 203.375 154.46875 204.160156 154.113281 204.859375 153.714844 C 206.269531 152.929688 207.40625 152.050781 208.636719 151.519531 C 209.25 151.25 209.878906 151.050781 210.535156 150.941406 C 211.195312 150.832031 211.894531 150.761719 212.421875 150.875 C 213.554688 151.089844 214.566406 152.128906 215.277344 153.359375 C 215.992188 154.601562 216.492188 156.011719 216.933594 157.441406 L 217.253906 157.378906 C 217.097656 155.871094 216.808594 154.359375 216.230469 152.894531 C 215.933594 152.164062 215.558594 151.441406 215.027344 150.78125 C 214.503906 150.125 213.765625 149.554688 212.886719 149.253906 C 212.46875 149.09375 211.96875 149.03125 211.5625 149.003906 C 211.15625 149.003906 210.738281 148.945312 210.324219 149 C 209.492188 149.042969 208.664062 149.222656 207.875 149.480469 C 206.292969 149.992188 204.945312 150.828125 203.691406 151.40625 C 202.433594 151.992188 201.265625 152.269531 200.050781 152.121094 C 199.75 152.101562 199.445312 152.058594 199.136719 151.96875 L 198.679688 151.867188 C 198.582031 151.820312 198.484375 151.785156 198.382812 151.746094 C 197.996094 151.554688 197.601562 151.195312 197.230469 150.734375 C 196.496094 149.800781 195.882812 148.527344 195.332031 147.21875 C 194.863281 146.082031 194.433594 144.894531 194.003906 143.683594 C 218.78125 145.457031 234.808594 153.820312 234.808594 161.6875 L 234.808594 172.25 L 236.839844 171.738281 C 241.152344 170.652344 245.144531 170.578125 248.707031 171.519531 C 253.613281 172.816406 257.621094 176.023438 260.304688 180.792969 C 264.417969 188.105469 264.660156 197.128906 260.964844 205.554688 Z M 245.691406 183.179688 C 242.265625 182.253906 238.003906 183.816406 235.769531 184.828125 L 234.808594 185.265625 L 234.808594 214.382812 L 237.132812 213.300781 C 243.066406 210.546875 247.628906 206.070312 249.984375 200.703125 C 252.140625 195.785156 252.09375 190.6875 249.859375 186.710938 C 248.425781 184.167969 246.796875 183.476562 245.691406 183.179688 Z M 246.984375 199.378906 C 245.265625 203.300781 242.152344 206.683594 238.082031 209.097656 L 238.082031 187.410156 C 240.789062 186.324219 243.269531 185.925781 244.84375 186.351562 C 245.246094 186.460938 246.085938 186.6875 247.007812 188.328125 C 248.734375 191.390625 248.726562 195.417969 246.984375 199.378906 Z M 222.40625 159.441406 C 222.40625 163.375 213.648438 166.78125 200.9375 168.398438 C 200.9375 168.398438 213.894531 165.832031 218.234375 162.546875 C 222.574219 159.261719 220.183594 156.082031 220.183594 156.082031 C 221.621094 157.128906 222.40625 158.261719 222.40625 159.441406 Z M 142.902344 102.460938 C 142.886719 100.09375 143.953125 97.746094 145.691406 96.230469 C 147.421875 94.699219 149.757812 94.003906 151.898438 94.246094 C 154.046875 94.472656 155.980469 95.550781 157.261719 97.074219 C 158.566406 98.589844 159.265625 100.523438 159.261719 102.460938 C 159.269531 100.523438 158.382812 98.609375 156.945312 97.394531 C 155.507812 96.167969 153.609375 95.65625 151.898438 95.898438 C 150.175781 96.128906 148.679688 97.023438 147.691406 98.242188 C 146.6875 99.457031 146.167969 100.953125 146.167969 102.464844 C 146.164062 103.972656 146.679688 105.472656 147.683594 106.691406 C 148.671875 107.914062 150.171875 108.808594 151.898438 109.039062 C 153.613281 109.277344 155.511719 108.761719 156.945312 107.53125 C 158.382812 106.316406 159.265625 104.40625 159.261719 102.464844 C 159.265625 104.402344 158.566406 106.335938 157.261719 107.847656 C 155.976562 109.371094 154.046875 110.445312 151.898438 110.671875 C 149.761719 110.914062 147.429688 110.21875 145.699219 108.691406 C 143.957031 107.171875 142.886719 104.828125 142.902344 102.460938 Z M 170.996094 210.742188 C 170.996094 213.9375 168.417969 216.527344 165.234375 216.527344 C 162.054688 216.527344 159.472656 213.9375 159.472656 210.742188 C 159.472656 207.546875 162.054688 204.960938 165.234375 204.960938 C 168.417969 204.960938 170.996094 207.546875 170.996094 210.742188 Z M 214.109375 210.742188 C 214.109375 213.9375 211.527344 216.527344 208.347656 216.527344 C 205.164062 216.527344 202.585938 213.9375 202.585938 210.742188 C 202.585938 207.546875 205.164062 204.960938 208.347656 204.960938 C 211.527344 204.960938 214.109375 207.546875 214.109375 210.742188 Z M 200.574219 223.417969 C 200.808594 225.523438 198.699219 227.6875 197.308594 229.007812 C 195.691406 230.539062 193.753906 231.761719 191.625 232.433594 C 184.59375 234.660156 175.96875 231.871094 172.480469 225.15625 C 172.101562 224.425781 171.878906 223.691406 172.734375 223.195312 C 173.75 222.609375 174.371094 223.414062 175.039062 224.039062 C 175.75 224.707031 176.519531 225.324219 177.328125 225.871094 C 178.863281 226.910156 180.554688 227.722656 182.328125 228.265625 C 185.65625 229.28125 189.082031 228.6875 192.269531 227.433594 C 193.625 226.902344 194.945312 226.242188 196.117188 225.371094 C 196.871094 224.808594 197.53125 224.195312 198.058594 223.414062 C 198.222656 223.175781 198.445312 222.949219 198.691406 222.773438 C 199.449219 222.230469 200.4375 222.144531 200.574219 223.417969 Z M 200.574219 223.417969 " fill-opacity="1" fill-rule="nonzero"/></g></svg>