<svg xmlns="http://www.w3.org/2000/svg" xmlns:xlink="http://www.w3.org/1999/xlink" width="1920" zoomAndPan="magnify" viewBox="0 0 1440 809.999993" height="1080" preserveAspectRatio="xMidYMid meet" version="1.0"><defs><clipPath id="97a877e24b"><path d="M 1040 594 L 1440 594 L 1440 810 L 1040 810 Z M 1040 594 " clip-rule="nonzero"/></clipPath><clipPath id="ea539c5b3d"><path d="M 1223.53125 447.042969 L 1580.304688 651.085938 L 1361.742188 1033.25 L 1004.96875 829.210938 Z M 1223.53125 447.042969 " clip-rule="nonzero"/></clipPath><clipPath id="6a0c8f839b"><path d="M 1223.53125 447.042969 L 1580.304688 651.085938 L 1361.742188 1033.25 L 1004.96875 829.210938 Z M 1223.53125 447.042969 " clip-rule="nonzero"/></clipPath><clipPath id="0335e18e42"><path d="M 0 0 L 329 0 L 329 169 L 0 169 Z M 0 0 " clip-rule="nonzero"/></clipPath><clipPath id="2d2202eb80"><path d="M 179.074219 -501.820312 L 417.902344 74.667969 L -153.042969 311.199219 L -391.867188 -265.289062 Z M 179.074219 -501.820312 " clip-rule="nonzero"/></clipPath><clipPath id="a1dc71d1d5"><path d="M 417.84375 74.527344 L 179.015625 -501.960938 L -391.925781 -265.429688 L -153.097656 311.058594 Z M 417.84375 74.527344 " clip-rule="nonzero"/></clipPath></defs><rect x="-144" width="1728" fill="#ffffff" y="-80.999999" height="971.999992" fill-opacity="1"/><rect x="-144" width="1728" fill="#fbf4ef" y="-80.999999" height="971.999992" fill-opacity="1"/><g clip-path="url(#97a877e24b)"><g clip-path="url(#ea539c5b3d)"><g clip-path="url(#6a0c8f839b)"><path fill="#e3d5ca" d="M 1044.09375 763.695312 C 1049.664062 751.714844 1061.070312 742.375 1073.496094 738.398438 C 1089.527344 733.214844 1103.464844 737.804688 1118.171875 744.117188 C 1135.101562 751.230469 1155.050781 747.355469 1167.941406 734.199219 C 1175.203125 726.804688 1180.34375 717.609375 1185.386719 708.59375 C 1196.457031 689.027344 1210.179688 670.746094 1234.425781 669.558594 C 1260.035156 668.226562 1274.03125 690.460938 1297.582031 694.363281 C 1314.839844 697.234375 1332.191406 687.09375 1343.664062 674.988281 C 1372.6875 644.226562 1389.722656 600.769531 1436.730469 594.871094 C 1463.132812 591.539062 1489.910156 599.386719 1508.203125 619.417969 C 1524.699219 637.484375 1526.8125 663.773438 1518.894531 686.191406 C 1514.691406 698.023438 1507.855469 709.164062 1499.363281 718.304688 C 1489.761719 728.5625 1478.203125 738.167969 1476.640625 753.140625 C 1475.304688 766.492188 1480.398438 780.019531 1480.507812 793.496094 C 1480.75 809.386719 1478.460938 825.226562 1471.132812 839.464844 C 1457.859375 865.125 1435.109375 873.695312 1407.773438 875.792969 C 1392.652344 876.945312 1375.695312 877.628906 1365.203125 890.058594 C 1356.066406 900.933594 1353.675781 915.316406 1347.136719 927.558594 C 1342.058594 937.253906 1334.417969 945.71875 1325.964844 952.546875 C 1308.902344 966.472656 1286.617188 973.207031 1264.902344 968.140625 C 1237.042969 961.773438 1217.898438 936.707031 1201.511719 914.972656 C 1193.65625 904.644531 1184.578125 894.203125 1172.695312 888.457031 C 1160.375 882.460938 1147.023438 881.125 1133.949219 877.265625 C 1102.175781 867.957031 1074.421875 852.4375 1055.140625 824.957031 C 1044.59375 809.945312 1037.238281 789.757812 1041.542969 771.21875 C 1042.097656 768.621094 1043.050781 766.132812 1044.09375 763.695312 Z M 1044.09375 763.695312 " fill-opacity="1" fill-rule="nonzero"/></g></g></g><g clip-path="url(#0335e18e42)"><g clip-path="url(#2d2202eb80)"><g clip-path="url(#a1dc71d1d5)"><path fill="#d6c0b3" d="M 312.84375 54.425781 C 342.410156 18.859375 325.570312 -28.050781 306.046875 -65.167969 C 284.203125 -106.640625 286.496094 -133.625 292.542969 -178.746094 C 297.449219 -215.367188 285.582031 -242.445312 256.589844 -267.09375 C 221.46875 -296.84375 189.847656 -274.675781 155.046875 -296.140625 C 122.714844 -316.035156 114.117188 -362.734375 82.597656 -385.039062 C 50.921875 -407.40625 14.472656 -401.894531 -19 -386.082031 C -64.585938 -364.476562 -98.207031 -322.441406 -148.941406 -311.394531 C -189.8125 -302.492188 -245.285156 -326.015625 -277.21875 -289.601562 C -336.945312 -221.460938 -226.128906 -131.878906 -212.429688 -67.863281 C -197.714844 1.429688 -228.628906 128.484375 -139.628906 164.152344 C -100.296875 179.984375 -61.878906 146.710938 -27.488281 133.109375 C 20.375 114.1875 41.480469 124.488281 86.175781 144.832031 C 129.15625 164.460938 154.457031 183.640625 194.234375 152.394531 C 218.097656 133.703125 208.859375 94.523438 223.820312 80.292969 C 242.609375 62.796875 296.113281 74.695312 312.84375 54.425781 Z M 312.84375 54.425781 " fill-opacity="1" fill-rule="nonzero"/></g></g></g></svg>