<svg xmlns="http://www.w3.org/2000/svg" xmlns:xlink="http://www.w3.org/1999/xlink" width="500" zoomAndPan="magnify" viewBox="0 0 375 374.999991" height="500" preserveAspectRatio="xMidYMid meet" version="1.0"><defs><clipPath id="1d515a3a8c"><path d="M 38.507812 38.507812 L 336.492188 38.507812 L 336.492188 336.492188 L 38.507812 336.492188 Z M 38.507812 38.507812 " clip-rule="nonzero"/></clipPath><clipPath id="9e81a01628"><path d="M 187.5 38.507812 C 105.214844 38.507812 38.507812 105.214844 38.507812 187.5 C 38.507812 269.785156 105.214844 336.492188 187.5 336.492188 C 269.785156 336.492188 336.492188 269.785156 336.492188 187.5 C 336.492188 105.214844 269.785156 38.507812 187.5 38.507812 Z M 187.5 38.507812 " clip-rule="nonzero"/></clipPath><clipPath id="82b5c0172d"><path d="M 38.507812 38.507812 L 336.257812 38.507812 L 336.257812 336.257812 L 38.507812 336.257812 Z M 38.507812 38.507812 " clip-rule="nonzero"/></clipPath><clipPath id="c6377ab8a8"><path d="M 187.496094 38.507812 C 105.210938 38.507812 38.507812 105.210938 38.507812 187.496094 C 38.507812 269.777344 105.210938 336.480469 187.496094 336.480469 C 269.777344 336.480469 336.480469 269.777344 336.480469 187.496094 C 336.480469 105.210938 269.777344 38.507812 187.496094 38.507812 Z M 187.496094 38.507812 " clip-rule="nonzero"/></clipPath><clipPath id="e4a3541a3a"><path d="M 44.6875 44.6875 L 330.3125 44.6875 L 330.3125 330.3125 L 44.6875 330.3125 Z M 44.6875 44.6875 " clip-rule="nonzero"/></clipPath><clipPath id="dd333f4ad2"><path d="M 187.5 44.6875 C 108.625 44.6875 44.6875 108.625 44.6875 187.5 C 44.6875 266.375 108.625 330.3125 187.5 330.3125 C 266.375 330.3125 330.3125 266.375 330.3125 187.5 C 330.3125 108.625 266.375 44.6875 187.5 44.6875 Z M 187.5 44.6875 " clip-rule="nonzero"/></clipPath><clipPath id="8fb933d81f"><path d="M 118.59375 97.984375 L 256.046875 97.984375 L 256.046875 277.203125 L 118.59375 277.203125 Z M 118.59375 97.984375 " clip-rule="nonzero"/></clipPath></defs><g clip-path="url(#1d515a3a8c)"><g clip-path="url(#9e81a01628)"><path fill="#ffffff" d="M 38.507812 38.507812 L 336.492188 38.507812 L 336.492188 336.492188 L 38.507812 336.492188 Z M 38.507812 38.507812 " fill-opacity="1" fill-rule="nonzero"/></g></g><g clip-path="url(#82b5c0172d)"><g clip-path="url(#c6377ab8a8)"><path stroke-linecap="butt" transform="matrix(0.75, 0, 0, 0.75, 38.509213, 38.509216)" fill="none" stroke-linejoin="miter" d="M 198.649187 -0.00187159 C 88.935638 -0.00187159 -0.00186799 88.935634 -0.00186799 198.649183 C -0.00186799 308.357524 88.935638 397.29503 198.649187 397.29503 C 308.357527 397.29503 397.295033 308.357524 397.295033 198.649183 C 397.295033 88.935634 308.357527 -0.00187159 198.649187 -0.00187159 Z M 198.649187 -0.00187159 " stroke="#000000" stroke-width="2" stroke-opacity="1" stroke-miterlimit="4"/></g></g><g clip-path="url(#e4a3541a3a)"><g clip-path="url(#dd333f4ad2)"><path fill="#bde0fe" d="M 44.6875 44.6875 L 330.3125 44.6875 L 330.3125 330.3125 L 44.6875 330.3125 Z M 44.6875 44.6875 " fill-opacity="1" fill-rule="nonzero"/></g></g><g clip-path="url(#8fb933d81f)"><path fill="#000000" d="M 187.273438 97.984375 C 202.636719 97.984375 216.855469 102.960938 228.402344 111.390625 C 240.25 120.039062 249.289062 132.335938 253.886719 146.640625 C 259.300781 163.46875 253.996094 183.832031 243.992188 203.839844 C 229.691406 232.445312 205.742188 260.578125 190.515625 275.859375 C 188.726562 277.65625 185.816406 277.65625 184.03125 275.859375 L 183.988281 275.820312 C 168.4375 260.203125 144.28125 231.949219 130.144531 203.140625 C 120.234375 182.953125 115.203125 162.375 121.144531 145.191406 C 125.964844 131.261719 135.019531 119.328125 146.757812 110.957031 C 158.207031 102.789062 172.183594 97.984375 187.273438 97.984375 Z M 223.027344 118.832031 C 213 111.511719 200.636719 107.1875 187.273438 107.1875 C 174.136719 107.1875 161.980469 111.351562 152.0625 118.433594 C 141.835938 125.726562 133.960938 136.09375 129.78125 148.179688 C 124.761719 162.683594 129.417969 180.886719 138.347656 199.078125 C 151.015625 224.886719 172.214844 250.40625 187.273438 266.039062 C 202.058594 250.660156 223.050781 225.300781 235.824219 199.746094 C 244.855469 181.683594 249.75 163.652344 245.183594 149.441406 C 241.191406 137.035156 233.332031 126.359375 223.027344 118.832031 " fill-opacity="1" fill-rule="nonzero"/></g><path fill="#000000" d="M 187.273438 125.109375 C 197.128906 125.109375 206.054688 129.121094 212.515625 135.605469 C 218.976562 142.089844 222.976562 151.042969 222.976562 160.933594 C 222.976562 170.824219 218.976562 179.78125 212.515625 186.265625 C 206.054688 192.75 197.128906 196.753906 187.273438 196.753906 C 177.414062 196.753906 168.488281 192.75 162.027344 186.265625 C 155.566406 179.78125 151.566406 170.824219 151.566406 160.933594 C 151.566406 151.042969 155.566406 142.089844 162.027344 135.605469 C 168.488281 129.121094 177.414062 125.109375 187.273438 125.109375 Z M 206.03125 142.109375 C 201.234375 137.289062 194.597656 134.3125 187.273438 134.3125 C 179.945312 134.3125 173.316406 137.289062 168.511719 142.109375 C 163.714844 146.925781 160.742188 153.585938 160.742188 160.933594 C 160.742188 168.285156 163.714844 174.9375 168.511719 179.757812 C 173.316406 184.574219 179.945312 187.550781 187.273438 187.550781 C 194.597656 187.550781 201.234375 184.574219 206.03125 179.757812 C 210.835938 174.9375 213.800781 168.285156 213.800781 160.933594 C 213.800781 153.585938 210.835938 146.925781 206.03125 142.109375 " fill-opacity="1" fill-rule="nonzero"/></svg>