<svg xmlns="http://www.w3.org/2000/svg" xmlns:xlink="http://www.w3.org/1999/xlink" width="500" zoomAndPan="magnify" viewBox="0 0 375 374.999991" height="500" preserveAspectRatio="xMidYMid meet" version="1.0"><defs><filter x="0%" y="0%" width="100%" height="100%" id="88b1f30550"><feColorMatrix values="0 0 0 0 1 0 0 0 0 1 0 0 0 0 1 0 0 0 1 0" color-interpolation-filters="sRGB"/></filter><clipPath id="00dffc38ee"><path d="M 38.507812 38.507812 L 336.492188 38.507812 L 336.492188 336.492188 L 38.507812 336.492188 Z M 38.507812 38.507812 " clip-rule="nonzero"/></clipPath><clipPath id="1ee9cc801b"><path d="M 187.5 38.507812 C 105.214844 38.507812 38.507812 105.214844 38.507812 187.5 C 38.507812 269.785156 105.214844 336.492188 187.5 336.492188 C 269.785156 336.492188 336.492188 269.785156 336.492188 187.5 C 336.492188 105.214844 269.785156 38.507812 187.5 38.507812 Z M 187.5 38.507812 " clip-rule="nonzero"/></clipPath><clipPath id="9a8362f113"><path d="M 38.507812 38.507812 L 336.257812 38.507812 L 336.257812 336.257812 L 38.507812 336.257812 Z M 38.507812 38.507812 " clip-rule="nonzero"/></clipPath><clipPath id="24463b930b"><path d="M 187.496094 38.507812 C 105.210938 38.507812 38.507812 105.210938 38.507812 187.496094 C 38.507812 269.777344 105.210938 336.480469 187.496094 336.480469 C 269.777344 336.480469 336.480469 269.777344 336.480469 187.496094 C 336.480469 105.210938 269.777344 38.507812 187.496094 38.507812 Z M 187.496094 38.507812 " clip-rule="nonzero"/></clipPath><clipPath id="a791865924"><path d="M 44.6875 44.6875 L 330.3125 44.6875 L 330.3125 330.3125 L 44.6875 330.3125 Z M 44.6875 44.6875 " clip-rule="nonzero"/></clipPath><clipPath id="b87d8c8f29"><path d="M 187.5 44.6875 C 108.625 44.6875 44.6875 108.625 44.6875 187.5 C 44.6875 266.375 108.625 330.3125 187.5 330.3125 C 266.375 330.3125 330.3125 266.375 330.3125 187.5 C 330.3125 108.625 266.375 44.6875 187.5 44.6875 Z M 187.5 44.6875 " clip-rule="nonzero"/></clipPath><mask id="34bd35d050"><g filter="url(#88b1f30550)"><rect x="-37.5" width="450" fill="#000000" y="-37.499999" height="449.999989" fill-opacity="0.87"/></g></mask><clipPath id="f9df9dffb6"><path d="M 0.195312 0.148438 L 124.695312 0.148438 L 124.695312 171.148438 L 0.195312 171.148438 Z M 0.195312 0.148438 " clip-rule="nonzero"/></clipPath><clipPath id="6893af8a77"><path d="M 57 0.148438 L 124.695312 0.148438 L 124.695312 171.148438 L 57 171.148438 Z M 57 0.148438 " clip-rule="nonzero"/></clipPath><clipPath id="67f94b4c72"><path d="M 0.195312 18 L 46 18 L 46 88 L 0.195312 88 Z M 0.195312 18 " clip-rule="nonzero"/></clipPath><clipPath id="4bb29c5f00"><path d="M 18 0.148438 L 88 0.148438 L 88 47 L 18 47 Z M 18 0.148438 " clip-rule="nonzero"/></clipPath><clipPath id="fc01c20f28"><path d="M 57 0.148438 L 88 0.148438 L 88 9 L 57 9 Z M 57 0.148438 " clip-rule="nonzero"/></clipPath><clipPath id="ff4b07ac2c"><rect x="0" width="126" y="0" height="172"/></clipPath></defs><g clip-path="url(#00dffc38ee)"><g clip-path="url(#1ee9cc801b)"><path fill="#ffffff" d="M 38.507812 38.507812 L 336.492188 38.507812 L 336.492188 336.492188 L 38.507812 336.492188 Z M 38.507812 38.507812 " fill-opacity="1" fill-rule="nonzero"/></g></g><g clip-path="url(#9a8362f113)"><g clip-path="url(#24463b930b)"><path stroke-linecap="butt" transform="matrix(0.75, 0, 0, 0.75, 38.509213, 38.509209)" fill="none" stroke-linejoin="miter" d="M 198.649187 -0.00186199 C 88.935638 -0.00186199 -0.00186799 88.935644 -0.00186799 198.649193 C -0.00186799 308.357533 88.935638 397.295039 198.649187 397.295039 C 308.357527 397.295039 397.295033 308.357533 397.295033 198.649193 C 397.295033 88.935644 308.357527 -0.00186199 198.649187 -0.00186199 Z M 198.649187 -0.00186199 " stroke="#000000" stroke-width="2" stroke-opacity="1" stroke-miterlimit="4"/></g></g><g clip-path="url(#a791865924)"><g clip-path="url(#b87d8c8f29)"><path fill="#8ed0dc" d="M 44.6875 44.6875 L 330.3125 44.6875 L 330.3125 330.3125 L 44.6875 330.3125 Z M 44.6875 44.6875 " fill-opacity="1" fill-rule="nonzero"/></g></g><g mask="url(#34bd35d050)"><g transform="matrix(1, 0, 0, 1, 125, 102)"><g clip-path="url(#ff4b07ac2c)"><g clip-path="url(#f9df9dffb6)"><path fill="#4caf50" d="M 62.445312 0.207031 C 28.066406 0.207031 0.195312 28.167969 0.195312 62.652344 C 0.195312 100.621094 26.140625 109.566406 39.753906 132.84375 C 52.425781 154.507812 52.4375 171.09375 62.445312 171.09375 C 72.824219 171.09375 72.167969 155.640625 85.136719 132.84375 C 98.101562 110.046875 124.695312 100.621094 124.695312 62.652344 C 124.695312 28.167969 96.824219 0.207031 62.445312 0.207031 Z M 62.445312 86.585938 C 49.582031 86.585938 39.15625 76.125 39.15625 63.226562 C 39.15625 56.769531 41.761719 50.933594 45.976562 46.703125 C 50.191406 42.476562 56.015625 39.859375 62.445312 39.859375 C 75.304688 39.859375 85.730469 50.320312 85.730469 63.226562 C 85.730469 76.125 75.304688 86.585938 62.445312 86.585938 Z M 62.445312 86.585938 " fill-opacity="1" fill-rule="nonzero"/></g><g clip-path="url(#6893af8a77)"><path fill="#43a047" d="M 62.445312 0.207031 C 60.710938 0.207031 58.996094 0.28125 57.300781 0.417969 C 89.273438 3.042969 114.40625 29.90625 114.40625 62.652344 C 114.40625 100.621094 87.808594 110.046875 74.847656 132.84375 C 64.574219 150.902344 62.847656 164.347656 57.417969 169.160156 C 58.8125 170.417969 60.425781 171.09375 62.445312 171.09375 C 72.824219 171.09375 72.167969 155.640625 85.136719 132.84375 C 98.101562 110.046875 124.695312 100.621094 124.695312 62.652344 C 124.695312 28.167969 96.824219 0.207031 62.445312 0.207031 Z M 62.445312 0.207031 " fill-opacity="1" fill-rule="nonzero"/></g><g clip-path="url(#67f94b4c72)"><path fill="#f44336" d="M 45.976562 46.703125 L 5.050781 87.761719 C 2.058594 80.921875 0.195312 72.832031 0.195312 62.65625 C 0.195312 45.554688 7.046875 30.058594 18.144531 18.785156 Z M 45.976562 46.703125 " fill-opacity="1" fill-rule="nonzero"/></g><path fill="#42a5f5" d="M 79.074219 79.578125 C 83.191406 75.363281 85.730469 69.589844 85.730469 63.222656 C 85.730469 50.320312 75.304688 39.859375 62.445312 39.859375 C 56.011719 39.859375 50.191406 42.476562 45.976562 46.703125 L 87.207031 5.34375 C 101.941406 11.757812 113.71875 23.726562 119.914062 38.613281 L 79.074219 79.582031 Z M 79.074219 79.578125 " fill-opacity="1" fill-rule="nonzero"/><path fill="#2196f3" d="M 87.207031 5.34375 L 83.730469 8.832031 C 97.558594 17.011719 107.957031 30.398438 112.25 46.300781 L 119.914062 38.613281 C 113.71875 23.726562 101.941406 11.757812 87.207031 5.34375 Z M 87.207031 5.34375 " fill-opacity="1" fill-rule="nonzero"/><path fill="#ffc107" d="M 79.074219 79.582031 L 34.125 124.671875 C 24.351562 112.324219 11.816406 103.242188 5.050781 87.761719 L 45.976562 46.703125 C 41.761719 50.933594 39.15625 56.773438 39.15625 63.226562 C 39.15625 76.125 49.582031 86.585938 62.445312 86.585938 C 68.957031 86.585938 74.847656 83.902344 79.074219 79.578125 Z M 79.074219 79.582031 " fill-opacity="1" fill-rule="nonzero"/><g clip-path="url(#4bb29c5f00)"><path fill="#1e88e5" d="M 87.207031 5.34375 L 45.976562 46.703125 L 18.144531 18.785156 C 29.433594 7.3125 45.113281 0.207031 62.445312 0.207031 C 71.246094 0.207031 79.621094 2.039062 87.207031 5.34375 Z M 87.207031 5.34375 " fill-opacity="1" fill-rule="nonzero"/></g><g clip-path="url(#fc01c20f28)"><path fill="#1976d2" d="M 62.445312 0.207031 C 60.710938 0.207031 58.996094 0.28125 57.300781 0.417969 C 57.300781 0.417969 57.300781 0.421875 57.300781 0.421875 C 66.890625 1.207031 75.863281 4.179688 83.730469 8.832031 L 87.207031 5.34375 C 79.621094 2.039062 71.246094 0.207031 62.445312 0.207031 Z M 62.445312 0.207031 " fill-opacity="1" fill-rule="nonzero"/></g></g></g></g></svg>