<svg xmlns="http://www.w3.org/2000/svg" xmlns:xlink="http://www.w3.org/1999/xlink" width="500" zoomAndPan="magnify" viewBox="0 0 375 374.999991" height="500" preserveAspectRatio="xMidYMid meet" version="1.0"><defs><clipPath id="aaf0cdc9f7"><path d="M 75 57.441406 L 300 57.441406 L 300 317.691406 L 75 317.691406 Z M 75 57.441406 " clip-rule="nonzero"/></clipPath></defs><path fill="#363a2c" d="M 276.332031 208.515625 C 273.320312 196.089844 270.3125 183.675781 267.316406 171.25 C 265.550781 163.945312 264.296875 156.5 261.757812 149.636719 C 262.652344 137.578125 262.554688 124.769531 256.253906 114.839844 C 251.957031 108.074219 238.527344 107.820312 237.15625 117.335938 C 234.945312 132.589844 231.078125 147.511719 229.207031 162.859375 C 227.273438 178.722656 225.527344 194.621094 223.691406 210.5 C 222.699219 219.019531 231.785156 226.480469 239.613281 226.421875 C 245.511719 226.375 251.132812 226.765625 256.910156 227.949219 C 268.761719 230.382812 279.300781 220.714844 276.34375 208.515625 Z M 276.332031 208.515625 " fill-opacity="1" fill-rule="nonzero"/><path fill="#a3a380" d="M 236.652344 61.304688 C 199.375 64.886719 162.921875 57.402344 125.992188 68.085938 C 116.492188 70.832031 115.773438 76.835938 117.300781 84.246094 C 103.335938 132.683594 102.429688 173.316406 92.460938 228.042969 C 90.816406 237.105469 99.828125 242.691406 108.125 243.707031 C 132.628906 246.6875 157.21875 248.382812 181.867188 249.625 C 192.453125 250.164062 205.238281 252.585938 215.527344 249.230469 C 228.609375 244.96875 225.097656 231.996094 227.320312 220.023438 C 231.664062 196.554688 236.246094 172.363281 239.066406 148.667969 C 242 123.984375 247.371094 99.441406 250.105469 74.746094 C 250.859375 67.976562 243.328125 60.660156 236.664062 61.304688 Z M 236.652344 61.304688 " fill-opacity="1" fill-rule="nonzero"/><g clip-path="url(#aaf0cdc9f7)"><path fill="#dbc1ac" d="M 154.832031 251.941406 C 154.734375 251.488281 154.640625 251.035156 154.53125 250.570312 C 167.328125 251.152344 180.125 251.570312 192.917969 252.035156 C 197.898438 252.214844 202.875 252.40625 207.851562 252.585938 C 210.488281 252.679688 213.117188 252.777344 215.753906 252.871094 C 216.480469 252.894531 217.199219 252.921875 217.890625 252.921875 C 217.734375 254.386719 217.578125 255.855469 217.425781 257.324219 C 215.597656 275.144531 213.808594 292.964844 212.066406 310.789062 C 211.71875 314.261719 215.289062 317.507812 218.523438 317.246094 C 225.265625 316.707031 228.105469 316.277344 229.660156 287.117188 C 230.089844 279.085938 230.671875 271.074219 231.402344 263.066406 C 232.355469 252.621094 233.539062 242.199219 234.851562 231.792969 C 238.074219 233.070312 241.882812 232.925781 245.261719 232.785156 C 249.042969 232.628906 252.828125 232.484375 256.613281 232.257812 C 262.507812 231.898438 268.40625 231.578125 274.289062 231.195312 C 274.730469 233.261719 275.171875 235.3125 275.613281 237.378906 C 277.203125 244.839844 278.777344 252.289062 280.363281 259.746094 C 281.820312 266.660156 282.882812 273.855469 284.792969 280.671875 C 284.886719 281.148438 285.019531 281.625 285.199219 282.09375 C 286.488281 285.519531 289.386719 287.820312 293.183594 287.308594 C 296.382812 286.878906 299.976562 283.75 299.5 280.160156 C 298.53125 272.855469 296.585938 265.644531 294.988281 258.445312 C 293.542969 251.953125 292.097656 245.460938 290.652344 238.976562 C 290.449219 237.796875 290.246094 236.601562 290.046875 235.421875 C 287.5625 221.46875 284.914062 207.550781 282.382812 193.609375 C 277.238281 165.234375 271.640625 136.933594 265.144531 108.835938 C 263.390625 101.257812 261.503906 93.714844 259.546875 86.179688 C 258.332031 81.476562 257.269531 76.714844 255.667969 72.167969 C 255.429688 71 255.09375 69.851562 254.738281 68.671875 C 252.566406 61.402344 249.546875 57.449219 239.316406 57.414062 C 233.8125 57.390625 228.347656 57.738281 222.832031 57.738281 C 219.953125 57.738281 217.078125 57.675781 214.214844 57.546875 C 213.246094 57.5 212.101562 57.460938 210.980469 57.546875 C 205.941406 57.582031 202.207031 57.84375 198.085938 57.796875 C 178.820312 57.59375 165.667969 57.699219 149.589844 57.878906 C 144.660156 57.929688 138.992188 58.082031 134.097656 58.632812 C 128.675781 59.230469 124.296875 58.847656 119.84375 60.265625 C 117.300781 60.875 115.261719 61.089844 115.011719 62.476562 C 114.28125 66.523438 113.066406 70.425781 112.289062 74.449219 C 111.550781 78.339844 110.796875 82.21875 110.09375 86.109375 C 108.660156 94.046875 107.203125 101.984375 105.820312 109.921875 C 103.039062 125.832031 100.304688 141.734375 97.714844 157.679688 C 92.535156 189.597656 87.460938 221.515625 82.554688 253.480469 C 81.195312 262.351562 79.835938 271.207031 78.472656 280.074219 C 77.78125 284.585938 77.160156 289.109375 76.527344 293.621094 C 75.859375 298.433594 75.011719 303.230469 75.574219 308.078125 C 75.777344 309.832031 76.660156 311.382812 78.460938 311.875 C 78.914062 311.992188 79.417969 312.015625 79.929688 311.957031 C 80.492188 312.195312 81.125 312.339844 81.828125 312.339844 C 83.628906 312.339844 85.253906 311.3125 86.148438 309.832031 C 86.148438 309.832031 86.171875 309.832031 86.171875 309.84375 C 86.21875 309.738281 86.269531 309.628906 86.316406 309.523438 C 86.410156 309.332031 86.496094 309.140625 86.566406 308.949219 C 88.046875 305.414062 88.453125 301.546875 89.191406 297.777344 C 89.957031 293.835938 90.804688 289.921875 91.6875 286.007812 C 93.429688 278.296875 95.292969 270.597656 96.820312 262.839844 C 97.871094 257.480469 98.882812 252.097656 99.863281 246.726562 C 103.921875 247.394531 108.015625 247.738281 112.121094 248.085938 C 121.039062 248.863281 129.980469 249.253906 138.90625 249.78125 C 139.195312 249.792969 139.480469 249.804688 139.765625 249.828125 C 139.8125 250.03125 139.851562 250.234375 139.898438 250.449219 C 140.722656 254.183594 141.460938 257.945312 142.128906 261.71875 C 142.796875 265.488281 143.371094 269.273438 143.933594 273.054688 C 144.421875 276.375 144.648438 279.777344 145.199219 283.09375 C 145.199219 283.214844 145.199219 283.347656 145.199219 283.464844 C 145.328125 285.46875 146.046875 286.796875 147.359375 288.277344 C 149.28125 290.449219 153.78125 290.675781 155.640625 288.277344 C 156.847656 286.734375 157.695312 285.507812 157.765625 283.464844 C 157.789062 282.808594 157.707031 282.140625 157.671875 281.484375 C 157.585938 279.945312 157.492188 278.402344 157.382812 276.863281 C 157.144531 273.675781 156.835938 270.503906 156.453125 267.328125 L 154.832031 251.964844 Z M 233.121094 114.601562 C 231.257812 130.5 229.433594 146.398438 227.640625 162.300781 C 224.835938 187.175781 222.175781 212.050781 219.574219 236.949219 C 201.65625 236.425781 183.738281 235.898438 165.824219 235.492188 C 152.144531 234.882812 138.464844 234.226562 124.785156 233.546875 C 119.878906 233.308594 114.960938 233.105469 110.058594 232.902344 C 107.515625 232.796875 104.9375 232.59375 102.382812 232.582031 C 103.382812 226.816406 104.363281 221.050781 105.292969 215.273438 C 110.523438 183.09375 114.878906 150.757812 118.746094 118.386719 C 119.34375 113.445312 119.988281 108.492188 120.585938 103.546875 C 121.910156 97.722656 122.886719 91.742188 123.914062 85.859375 C 124.441406 82.875 124.964844 79.902344 125.515625 76.917969 C 125.730469 75.761719 126.027344 74.507812 126.230469 73.242188 C 128.675781 73.277344 131.160156 73.085938 133.558594 73.003906 C 137.652344 72.871094 141.734375 72.691406 145.832031 72.492188 C 153.863281 72.085938 161.910156 71.761719 169.953125 71.523438 C 186.34375 71.035156 202.71875 71 219.121094 70.972656 C 223.546875 70.972656 227.988281 70.925781 232.40625 71.117188 C 234.503906 71.199219 236.605469 71.320312 238.695312 71.59375 C 238.921875 71.628906 239.148438 71.667969 239.375 71.703125 C 237.550781 77.648438 237.070312 84.175781 236.234375 90.226562 C 235.125 98.34375 234.085938 106.460938 233.132812 114.601562 Z M 270.707031 216.441406 C 266.457031 216.417969 262.199219 216.667969 257.949219 216.871094 C 250.90625 217.207031 243.769531 217.074219 236.726562 217.457031 C 236.832031 216.691406 236.929688 215.941406 237.035156 215.175781 C 241.523438 182.675781 246.714844 150.253906 249.988281 117.597656 C 250 117.667969 250.011719 117.753906 250.035156 117.824219 C 252.863281 131.015625 255.691406 144.203125 258.496094 157.394531 C 262.6875 177.078125 266.925781 196.757812 271.148438 216.441406 C 271.007812 216.441406 270.863281 216.441406 270.71875 216.441406 Z M 270.707031 216.441406 " fill-opacity="1" fill-rule="nonzero"/></g><path fill="#ffffff" d="M 134.957031 120.4375 C 137.285156 123.136719 140.6875 121.320312 142.644531 119.148438 C 144.542969 117.023438 145.628906 114.328125 146.402344 111.617188 C 147.273438 108.609375 147.992188 105.519531 148.398438 102.402344 C 148.886719 98.75 148.828125 94.976562 147.40625 91.527344 C 146.867188 90.214844 145.792969 88.914062 144.289062 88.734375 C 143.429688 88.164062 142.191406 87.960938 141.257812 88.292969 C 138.726562 89.199219 136.949219 92.578125 135.769531 94.800781 C 133.011719 99.96875 131.863281 106.140625 132.460938 111.953125 C 132.734375 114.636719 133.117188 118.300781 134.957031 120.4375 Z M 137.117188 103.058594 C 137.640625 100.601562 138.476562 98.1875 139.613281 95.945312 C 139.828125 95.515625 140.960938 93.320312 142.046875 92.042969 C 142.25 92.351562 142.621094 92.613281 142.988281 92.6875 C 143.382812 92.839844 143.492188 92.890625 143.277344 92.816406 C 143.597656 93.175781 143.730469 93.941406 143.859375 94.394531 C 144.230469 95.71875 144.375 97.054688 144.386719 98.414062 C 144.398438 101.257812 143.835938 104.039062 143.179688 106.785156 C 142.667969 108.957031 142.164062 111.210938 141.28125 113.265625 C 140.851562 114.253906 140.304688 115.257812 139.585938 116.070312 C 139.253906 116.453125 138.753906 116.738281 138.441406 117.121094 C 138.191406 117.179688 138.082031 117.261719 138.09375 117.382812 C 138.046875 117.300781 137.988281 117.214844 137.953125 117.121094 C 136.292969 112.738281 136.160156 107.570312 137.117188 103.023438 Z M 137.117188 103.058594 " fill-opacity="1" fill-rule="nonzero"/><path fill="#ffffff" d="M 155.1875 120.714844 C 154.699219 118.386719 155.246094 116.128906 155.605469 113.8125 C 155.808594 112.476562 156.023438 111.152344 156.226562 109.816406 C 156.464844 109.898438 156.714844 109.945312 156.980469 109.910156 C 158.699219 109.695312 160.296875 109.445312 161.898438 108.742188 C 163.160156 108.191406 164.308594 107.390625 165.335938 106.472656 C 167.351562 104.660156 168.878906 102.105469 169.40625 99.429688 C 169.941406 96.695312 169.605469 93.664062 168.007812 91.324219 C 166.382812 88.9375 163.84375 87.613281 160.953125 88.101562 C 159.664062 88.316406 158.433594 88.960938 157.574219 89.964844 C 156.929688 89.726562 156.105469 89.988281 155.761719 90.824219 C 154.675781 93.4375 154.328125 96.242188 153.851562 99.011719 C 153.398438 101.6875 152.957031 104.359375 152.527344 107.046875 C 152.097656 109.730469 151.667969 112.40625 151.25 115.089844 C 150.867188 117.527344 150.4375 119.925781 151.488281 122.253906 C 152.480469 124.4375 155.617188 122.8125 155.175781 120.699219 Z M 160.164062 92.042969 C 160.464844 91.921875 161.085938 91.71875 161.527344 91.671875 C 161.265625 91.707031 161.898438 91.671875 161.871094 91.671875 C 162.003906 91.671875 162.148438 91.671875 162.277344 91.683594 C 162.3125 91.683594 162.328125 91.683594 162.398438 91.707031 C 164.308594 92.113281 165.429688 94.320312 165.539062 96.207031 C 165.667969 98.464844 164.785156 100.707031 163.292969 102.34375 C 161.5625 104.242188 159.640625 105.050781 156.980469 105.386719 C 156.953125 105.386719 156.929688 105.398438 156.90625 105.410156 C 157.242188 103.238281 157.550781 101.066406 157.863281 98.894531 C 158.113281 97.175781 158.375 95.46875 158.457031 93.75 C 158.914062 93.019531 159.304688 92.410156 160.152344 92.054688 Z M 160.164062 92.042969 " fill-opacity="1" fill-rule="nonzero"/><path fill="#ffffff" d="M 175.597656 119.972656 C 177.042969 120.390625 178.738281 120.378906 180.21875 120.34375 C 181.925781 120.296875 183.789062 120.164062 185.398438 119.554688 C 187.796875 118.648438 186.890625 115.1875 184.335938 115.6875 C 183.035156 115.9375 181.78125 116.34375 180.457031 116.453125 C 179.753906 116.511719 179.039062 116.511719 178.332031 116.488281 C 178.214844 116.488281 177.507812 116.378906 177.03125 116.332031 C 177.078125 116.058594 177.007812 115.675781 177.007812 115.414062 C 176.996094 114.746094 176.984375 114.089844 176.984375 113.421875 C 176.984375 111.929688 177.007812 110.425781 177.066406 108.933594 C 177.128906 107.402344 177.222656 105.875 177.34375 104.359375 C 177.640625 104.445312 177.925781 104.550781 178.226562 104.621094 C 179.0625 104.8125 179.945312 104.898438 180.804688 104.980469 C 181.007812 105.003906 181.199219 105.027344 181.402344 105.039062 C 181.4375 105.039062 181.460938 105.039062 181.484375 105.039062 C 181.507812 105.039062 181.519531 105.039062 181.566406 105.050781 C 181.9375 105.113281 182.296875 105.160156 182.652344 105.230469 C 183.40625 105.375 184.15625 105.53125 184.910156 105.710938 C 185.914062 105.960938 187.117188 105.386719 187.355469 104.324219 C 187.582031 103.308594 187.046875 102.128906 185.972656 101.878906 C 184.300781 101.484375 182.605469 101.257812 180.898438 101.171875 C 180.039062 101.136719 179.074219 101.183594 178.238281 101.398438 C 178.023438 101.460938 177.820312 101.542969 177.617188 101.625 C 177.652344 101.246094 177.6875 100.863281 177.722656 100.480469 C 178 98.082031 178.703125 95.492188 178.511719 93.042969 C 178.59375 93.054688 178.667969 93.082031 178.75 93.09375 C 179.15625 93.128906 179.574219 93.140625 179.980469 93.175781 C 180.828125 93.234375 181.6875 93.199219 182.535156 93.210938 C 183.382812 93.210938 184.242188 93.246094 185.089844 93.269531 C 185.257812 93.269531 185.410156 93.285156 185.578125 93.296875 C 186.117188 93.558594 186.785156 93.59375 187.296875 93.269531 C 187.964844 92.855469 188.347656 92.019531 188.121094 91.242188 C 187.894531 90.492188 187.34375 89.941406 186.605469 89.703125 C 186.175781 89.558594 185.722656 89.558594 185.269531 89.558594 C 184.382812 89.558594 183.5 89.558594 182.617188 89.582031 C 181.734375 89.605469 180.839844 89.59375 179.96875 89.714844 C 179.480469 89.773438 178.964844 89.820312 178.476562 89.917969 C 178.035156 90 177.59375 90.191406 177.164062 90.347656 C 176.636719 90.539062 176.242188 90.96875 176.242188 91.539062 C 176.242188 91.660156 176.269531 91.792969 176.304688 91.910156 C 175.433594 93.308594 175.121094 94.976562 174.847656 96.578125 C 174.5625 98.285156 174.308594 100.003906 174.09375 101.722656 C 173.664062 105.113281 173.402344 108.515625 173.296875 111.929688 C 173.25 113.550781 173.152344 115.210938 173.25 116.820312 C 173.34375 118.335938 174.035156 119.542969 175.550781 119.984375 Z M 185.101562 92.890625 C 185.003906 92.804688 184.921875 92.722656 184.863281 92.601562 C 184.921875 92.722656 185.015625 92.792969 185.101562 92.890625 Z M 185.101562 92.890625 " fill-opacity="1" fill-rule="nonzero"/><path fill="#ffffff" d="M 195.722656 120.617188 C 196.523438 121.082031 197.824219 121.023438 198.457031 120.269531 C 198.984375 119.625 199.234375 118.921875 199.160156 118.253906 C 199.554688 113.789062 200.019531 109.335938 200.460938 104.886719 C 200.691406 102.628906 200.867188 100.375 201.046875 98.117188 C 201.046875 98.070312 201.046875 98.023438 201.058594 97.972656 C 202.683594 103.738281 204.976562 109.363281 207.601562 114.695312 C 208.414062 116.34375 209.164062 118.648438 211.167969 119.101562 C 213.152344 119.554688 214.644531 117.847656 215.179688 116.140625 C 215.8125 114.113281 215.800781 111.6875 215.980469 109.566406 C 216.171875 107.34375 216.300781 105.113281 216.386719 102.878906 C 216.480469 100.289062 216.492188 97.699219 216.433594 95.109375 C 216.410156 93.773438 216.351562 92.4375 216.277344 91.085938 C 216.207031 89.859375 216.136719 88.640625 214.894531 88.03125 C 214.140625 87.660156 212.949219 87.613281 212.363281 88.355469 C 211.828125 89.046875 211.550781 89.679688 211.789062 90.5625 C 211.828125 90.691406 211.898438 90.789062 211.945312 90.90625 C 211.910156 91.136719 211.96875 91.792969 211.980469 91.886719 C 212.015625 92.507812 212.042969 93.140625 212.066406 93.761719 C 212.101562 94.835938 212.136719 95.910156 212.148438 96.972656 C 212.171875 99.203125 212.148438 101.4375 212.066406 103.667969 C 211.980469 105.816406 211.851562 107.953125 211.671875 110.089844 C 211.585938 111.105469 211.492188 112.105469 211.371094 113.109375 C 211.253906 112.871094 211.121094 112.632812 211.003906 112.394531 C 210.464844 111.355469 209.953125 110.304688 209.4375 109.253906 C 208.4375 107.140625 207.433594 105.039062 206.515625 102.890625 C 204.664062 98.558594 203.089844 94.117188 201.40625 89.726562 C 200.90625 88.425781 199.101562 88.925781 199.328125 90.300781 C 199.351562 90.441406 199.386719 90.597656 199.414062 90.742188 C 199.257812 90.824219 199.113281 90.933594 198.996094 91.097656 C 197.800781 92.828125 197.65625 95.597656 197.371094 97.628906 C 197.050781 99.871094 196.726562 102.105469 196.429688 104.347656 C 195.84375 108.933594 195.304688 113.515625 194.671875 118.085938 C 194.53125 119.101562 194.769531 120.082031 195.710938 120.628906 Z M 195.722656 120.617188 " fill-opacity="1" fill-rule="nonzero"/><path fill="#ffffff" d="M 218.808594 144.609375 C 219.238281 144.3125 218.988281 143.453125 218.414062 143.691406 C 217.351562 144.121094 216.003906 144.011719 215.097656 143.25 C 214.738281 142.949219 214.203125 142.960938 213.949219 143.390625 C 213.140625 144.765625 211.265625 144.871094 210.238281 143.703125 C 209.210938 142.542969 208.363281 141.710938 206.695312 141.925781 C 205.023438 142.140625 203.363281 143.046875 201.894531 143.832031 C 201.144531 144.238281 200.425781 144.679688 199.710938 145.148438 C 199.890625 144.085938 200.019531 143 200.09375 141.910156 C 200.140625 141.148438 199.066406 140.933594 198.707031 141.542969 C 197.96875 142.769531 197.050781 143.847656 195.949219 144.753906 C 195.402344 145.207031 194.472656 145.839844 194.625 144.609375 C 194.734375 143.761719 194.851562 142.914062 194.984375 142.078125 C 195.101562 141.316406 194.183594 140.886719 193.71875 141.542969 C 192.800781 142.855469 191.617188 143.976562 190.246094 144.800781 C 189.445312 145.277344 188.46875 145.457031 188.359375 144.214844 C 188.289062 143.34375 188.980469 142.449219 189.46875 141.816406 C 189.910156 141.230469 188.945312 140.503906 188.453125 141.027344 C 187.667969 141.886719 186.878906 142.757812 186.078125 143.617188 C 185.589844 144.15625 184.613281 145.730469 183.882812 144.90625 C 183.238281 144.167969 183.929688 143.25 184.574219 142.855469 C 185.316406 142.402344 186.246094 142.210938 187.09375 142.066406 C 187.40625 142.007812 187.308594 141.542969 187.023438 141.542969 C 186.117188 141.519531 185.125 141.507812 184.253906 141.804688 C 184.300781 141.710938 184.335938 141.601562 184.382812 141.507812 C 184.492188 141.265625 184.265625 140.992188 184.015625 141.136719 C 183.070312 141.671875 182.546875 142.628906 181.867188 143.441406 C 181.386719 144.023438 180.386719 144.859375 179.5625 144.503906 C 178.667969 144.121094 179.050781 142.554688 179.214844 141.851562 C 179.359375 141.292969 179.550781 140.730469 179.789062 140.191406 C 180.050781 139.632812 180.421875 139.128906 180.671875 138.558594 C 180.671875 138.558594 180.671875 138.558594 180.660156 138.558594 C 181.007812 137.972656 180.265625 137.339844 179.683594 137.792969 C 178.847656 138.4375 178.296875 139.5625 177.9375 140.660156 C 177.722656 140.96875 177.507812 141.265625 177.292969 141.566406 C 177.234375 141.519531 177.175781 141.46875 177.078125 141.457031 C 175.398438 141.363281 173.402344 141.875 172.28125 143.226562 C 172.007812 143.546875 171.792969 143.941406 171.660156 144.359375 C 171.136719 144.503906 170.621094 144.71875 170.085938 144.894531 C 169.285156 145.171875 168.484375 145.160156 168.269531 144.121094 C 168.066406 143.140625 168.808594 142.175781 169.308594 141.421875 C 169.703125 140.824219 168.761719 140.074219 168.304688 140.648438 C 167.28125 141.925781 166.074219 143 164.75 143.941406 C 164.605469 143.546875 164.511719 143.152344 164.460938 142.746094 C 164.929688 142.222656 165.382812 141.695312 165.789062 141.148438 C 166.96875 139.597656 167.78125 137.890625 167.816406 135.90625 C 167.816406 135.429688 167.304688 135.167969 166.898438 135.382812 C 164.34375 136.753906 162.921875 139.5 163.019531 142.269531 C 162.957031 142.328125 162.886719 142.402344 162.828125 142.460938 C 161.96875 143.285156 160.964844 144.441406 159.773438 144.753906 C 159.246094 144.894531 158.472656 144.8125 158.113281 144.324219 C 158.792969 143.605469 159.316406 142.734375 159.222656 141.828125 C 159.164062 141.21875 158.507812 140.910156 158.015625 141.328125 C 157.253906 141.996094 156.550781 142.9375 156.535156 143.894531 C 156.046875 144.289062 155.511719 144.574219 155.105469 144.667969 C 154.589844 144.789062 154.019531 144.71875 153.578125 144.40625 C 153.480469 144.335938 153.398438 144.226562 153.339844 144.109375 C 153.996094 143.761719 154.542969 143.25 154.867188 142.507812 C 155.046875 142.101562 154.925781 141.625 154.449219 141.496094 C 153.253906 141.148438 152.097656 141.9375 151.785156 143.128906 C 151.785156 143.152344 151.785156 143.164062 151.785156 143.175781 C 150.878906 143.320312 149.914062 143.023438 149.398438 142.164062 C 148.945312 141.398438 147.765625 142.089844 148.207031 142.855469 C 148.742188 143.761719 148.410156 145.074219 147.417969 145.550781 C 146.046875 146.222656 144.792969 144.707031 144.945312 143.417969 C 144.898438 142.519531 143.683594 142.554688 143.574219 143.417969 C 143.609375 144.15625 143.085938 144.992188 142.238281 144.800781 C 141.34375 144.609375 141.246094 143.761719 141.355469 143.035156 C 141.472656 142.246094 141.699219 141.398438 141.175781 140.695312 C 140.125 139.296875 138.65625 140.492188 137.558594 141.113281 C 137.164062 141.339844 136.746094 141.589844 136.28125 141.457031 C 135.792969 141.328125 135.328125 140.730469 134.933594 140.421875 C 134.289062 139.917969 133.558594 139.667969 132.734375 139.714844 C 131.230469 139.789062 129.894531 140.730469 129.5 142.210938 C 129.394531 142.605469 129.96875 142.746094 130.097656 142.378906 C 130.46875 141.304688 131.589844 140.550781 132.722656 140.585938 C 133.953125 140.621094 134.40625 141.589844 135.300781 142.234375 C 135.972656 142.722656 136.710938 142.808594 137.476562 142.542969 C 138.203125 142.292969 138.953125 141.410156 139.707031 141.351562 C 140.578125 141.28125 139.898438 143.464844 140.003906 144.109375 C 140.160156 144.933594 140.746094 145.636719 141.507812 145.96875 C 142.464844 146.386719 143.417969 146.113281 144.074219 145.492188 C 144.839844 146.6875 146.308594 147.425781 147.738281 146.914062 C 148.910156 146.496094 149.625 145.410156 149.78125 144.238281 C 150.449219 144.539062 151.203125 144.621094 151.929688 144.539062 C 152.191406 145.097656 152.65625 145.578125 153.253906 145.839844 C 154.4375 146.375 155.773438 146.101562 156.824219 145.398438 C 156.894531 145.351562 156.96875 145.289062 157.039062 145.242188 C 157.0625 145.265625 157.0625 145.289062 157.085938 145.3125 C 158.339844 146.664062 160.261719 146.328125 161.621094 145.363281 C 162.195312 144.957031 162.730469 144.476562 163.257812 143.976562 C 163.386719 144.464844 163.578125 144.957031 163.816406 145.433594 C 163.996094 145.765625 164.488281 145.886719 164.796875 145.683594 C 165.523438 145.21875 166.183594 144.707031 166.800781 144.144531 C 166.789062 144.921875 167.066406 145.660156 167.863281 146.210938 C 168.570312 146.6875 169.417969 146.6875 170.214844 146.472656 C 170.707031 146.339844 171.230469 146.066406 171.757812 145.863281 C 172.03125 146.339844 172.507812 146.675781 173.058594 146.746094 C 174.824219 146.984375 176.101562 145.097656 177.007812 143.894531 C 177.164062 143.691406 177.304688 143.464844 177.449219 143.261719 C 177.449219 144.238281 177.699219 145.195312 178.582031 145.765625 C 179.71875 146.507812 181.257812 146.066406 182.199219 145.230469 C 182.308594 145.136719 182.390625 145.003906 182.5 144.894531 C 182.546875 145.074219 182.59375 145.265625 182.691406 145.433594 C 183.191406 146.386719 184.265625 146.839844 185.257812 146.28125 C 185.960938 145.886719 186.472656 145.148438 187 144.5625 C 187 144.5625 187 144.585938 187 144.597656 C 187.164062 145.589844 187.871094 146.507812 188.910156 146.652344 C 190.054688 146.804688 191.234375 145.910156 192.09375 145.265625 C 192.5 144.957031 192.847656 144.609375 193.207031 144.25 C 193.050781 145.683594 193.230469 147.054688 194.875 146.914062 C 195.914062 146.828125 196.835938 145.996094 197.5625 145.324219 C 197.824219 145.074219 198.050781 144.800781 198.289062 144.527344 C 198.183594 145.160156 198.0625 145.804688 197.910156 146.4375 C 197.859375 146.472656 197.800781 146.507812 197.753906 146.542969 C 196.40625 147.59375 195.164062 148.761719 194.027344 150.039062 C 193.15625 151.019531 191.691406 152.402344 191.511719 153.765625 C 191.355469 154.933594 192.335938 155.855469 193.457031 155.925781 C 194.902344 156.007812 195.878906 154.851562 196.558594 153.730469 C 197.800781 151.675781 198.671875 149.492188 199.257812 147.210938 C 200.511719 146.269531 201.835938 145.421875 203.21875 144.707031 C 204.808594 143.882812 207.253906 142.378906 208.734375 144.0625 C 209.664062 145.109375 210.464844 145.957031 211.980469 145.945312 C 213.054688 145.945312 214.035156 145.492188 214.738281 144.71875 C 216.015625 145.46875 217.496094 145.492188 218.808594 144.574219 Z M 166.410156 137.316406 C 166.085938 138.582031 165.40625 139.703125 164.546875 140.71875 C 164.808594 139.429688 165.441406 138.222656 166.410156 137.316406 Z M 174.214844 145.121094 C 174.214844 145.121094 174.082031 145.207031 174 145.253906 C 174.070312 144.957031 173.941406 144.597656 173.570312 144.441406 C 173.390625 144.371094 173.222656 144.324219 173.046875 144.289062 C 173.128906 144.144531 173.210938 144.023438 173.285156 143.929688 C 174.082031 142.9375 175.46875 142.4375 176.734375 142.316406 C 176.351562 142.796875 175.96875 143.273438 175.574219 143.738281 C 175.15625 144.226562 174.738281 144.753906 174.214844 145.121094 Z M 194.863281 153.476562 C 194.601562 153.835938 192.929688 155.210938 193.039062 153.800781 C 193.0625 153.429688 193.613281 152.871094 193.828125 152.582031 C 194.148438 152.164062 194.484375 151.757812 194.828125 151.355469 C 195.546875 150.519531 196.332031 149.742188 197.144531 148.992188 C 196.558594 150.613281 195.808594 152.152344 194.863281 153.464844 Z M 194.863281 153.476562 " fill-opacity="1" fill-rule="nonzero"/><path fill="#ffffff" d="M 136.171875 166.535156 C 137.164062 166.929688 138.214844 166.429688 138.726562 165.535156 C 138.980469 165.082031 139.109375 164.542969 139.050781 164.03125 C 139.027344 163.78125 138.953125 163.539062 138.847656 163.3125 C 139.074219 163.421875 139.382812 163.160156 139.21875 162.921875 C 138.621094 162.046875 137.523438 161.679688 136.507812 161.820312 C 135.421875 161.976562 134.597656 162.921875 134.5625 164.007812 C 134.527344 165.082031 135.195312 166.128906 136.199219 166.523438 Z M 135.527344 163.863281 C 135.527344 163.839844 135.527344 163.816406 135.542969 163.792969 C 135.566406 163.695312 135.589844 163.613281 135.613281 163.527344 C 135.589844 163.601562 135.613281 163.515625 135.636719 163.492188 C 135.660156 163.445312 135.695312 163.386719 135.71875 163.335938 C 135.730469 163.3125 135.757812 163.289062 135.769531 163.265625 C 135.804688 163.230469 135.828125 163.195312 135.863281 163.160156 C 135.886719 163.121094 135.921875 163.097656 135.957031 163.074219 C 135.972656 163.0625 135.996094 163.050781 136.007812 163.039062 C 136.042969 163.003906 135.957031 163.074219 136.03125 163.027344 C 136.101562 162.980469 136.1875 162.921875 136.269531 162.882812 C 136.316406 162.859375 136.351562 162.835938 136.402344 162.824219 C 136.328125 162.859375 136.449219 162.8125 136.472656 162.800781 C 136.890625 162.644531 137.261719 162.597656 137.664062 162.667969 C 137.714844 162.667969 137.761719 162.707031 137.808594 162.71875 C 137.640625 162.824219 137.558594 163.015625 137.664062 163.242188 C 137.664062 163.242188 137.691406 163.300781 137.664062 163.253906 C 137.628906 163.171875 137.726562 163.375 137.738281 163.386719 C 137.773438 163.433594 137.808594 163.457031 137.84375 163.503906 C 137.867188 163.527344 137.941406 163.613281 137.878906 163.539062 C 137.90625 163.578125 137.941406 163.625 137.964844 163.660156 C 137.988281 163.695312 138 163.71875 138.011719 163.753906 C 138.011719 163.753906 138.011719 163.753906 138.011719 163.765625 C 138.011719 163.765625 138.011719 163.765625 138.011719 163.792969 C 138.035156 163.875 138.058594 163.957031 138.070312 164.042969 C 138.070312 164.054688 138.070312 164.066406 138.070312 164.078125 C 138.070312 164.113281 138.070312 164.148438 138.070312 164.183594 C 138.070312 164.234375 138.070312 164.269531 138.070312 164.316406 C 138.070312 164.339844 138.070312 164.410156 138.070312 164.410156 C 138.070312 164.4375 138.058594 164.496094 138.058594 164.507812 C 138.058594 164.542969 138.046875 164.578125 138.035156 164.613281 C 138.011719 164.699219 137.988281 164.769531 137.964844 164.839844 C 137.964844 164.867188 137.941406 164.902344 137.929688 164.914062 C 137.90625 164.949219 137.890625 164.996094 137.867188 165.03125 C 137.84375 165.070312 137.832031 165.105469 137.808594 165.128906 C 137.785156 165.164062 137.714844 165.269531 137.773438 165.1875 C 137.726562 165.246094 137.664062 165.320312 137.605469 165.367188 C 137.570312 165.402344 137.546875 165.425781 137.511719 165.449219 C 137.511719 165.449219 137.476562 165.472656 137.460938 165.472656 C 137.425781 165.5 137.402344 165.511719 137.367188 165.535156 C 137.34375 165.546875 137.234375 165.605469 137.296875 165.570312 C 137.355469 165.546875 137.222656 165.59375 137.210938 165.59375 C 137.164062 165.605469 137.128906 165.617188 137.082031 165.628906 C 137.058594 165.628906 137.058594 165.628906 137.058594 165.628906 C 137.058594 165.628906 137.058594 165.628906 137.046875 165.628906 C 136.996094 165.628906 136.960938 165.628906 136.914062 165.628906 C 136.867188 165.628906 136.816406 165.628906 136.769531 165.628906 C 136.746094 165.628906 136.710938 165.628906 136.6875 165.617188 C 136.652344 165.617188 136.601562 165.59375 136.566406 165.582031 C 136.542969 165.582031 136.507812 165.558594 136.484375 165.558594 C 136.402344 165.523438 136.328125 165.472656 136.257812 165.425781 C 136.234375 165.414062 136.222656 165.402344 136.199219 165.378906 C 136.160156 165.355469 136.125 165.320312 136.089844 165.296875 C 136.019531 165.222656 135.945312 165.152344 135.886719 165.082031 C 135.945312 165.152344 135.863281 165.054688 135.851562 165.019531 C 135.828125 164.984375 135.804688 164.949219 135.78125 164.914062 C 135.730469 164.828125 135.683594 164.734375 135.636719 164.652344 C 135.636719 164.640625 135.613281 164.601562 135.613281 164.589844 C 135.601562 164.542969 135.578125 164.496094 135.566406 164.449219 C 135.566406 164.410156 135.542969 164.363281 135.527344 164.328125 C 135.527344 164.304688 135.527344 164.269531 135.515625 164.246094 C 135.515625 164.246094 135.503906 164.148438 135.515625 164.210938 C 135.515625 164.257812 135.515625 164.136719 135.515625 164.101562 C 135.515625 164.054688 135.515625 164.019531 135.515625 163.96875 C 135.515625 163.921875 135.515625 163.875 135.515625 163.828125 Z M 135.527344 163.863281 " fill-opacity="1" fill-rule="nonzero"/><path fill="#ffffff" d="M 145.125 161.703125 C 144.945312 161.726562 144.78125 161.75 144.601562 161.773438 C 143.742188 161.917969 142.894531 162.085938 142.046875 162.277344 C 141.472656 162.394531 141.59375 163.363281 142.191406 163.3125 C 143.0625 163.242188 143.921875 163.148438 144.78125 163.039062 C 144.804688 163.039062 144.839844 163.039062 144.863281 163.027344 C 144.71875 163.742188 144.578125 164.449219 144.433594 165.164062 C 144.363281 165.558594 144.207031 166 144.457031 166.359375 C 144.695312 166.703125 145.113281 166.691406 145.402344 166.40625 C 145.664062 166.144531 145.675781 165.605469 145.746094 165.246094 C 145.832031 164.816406 145.902344 164.386719 145.984375 163.957031 C 146.058594 163.578125 146.128906 163.195312 146.199219 162.8125 C 146.605469 162.742188 147.082031 162.621094 147.394531 162.359375 C 147.585938 162.191406 147.550781 161.796875 147.308594 161.691406 C 147.035156 161.570312 146.726562 161.546875 146.414062 161.558594 C 146.414062 161.535156 146.414062 161.523438 146.414062 161.5 C 146.511719 160.796875 146.628906 160.078125 146.199219 159.457031 C 145.472656 158.382812 143.945312 158.5625 142.882812 158.921875 C 142.367188 159.089844 142.570312 159.839844 143.109375 159.734375 C 143.765625 159.589844 145.507812 159.292969 145.414062 160.414062 C 145.386719 160.746094 145.257812 161.082031 145.1875 161.414062 C 145.160156 161.511719 145.148438 161.617188 145.125 161.726562 Z M 145.125 161.703125 " fill-opacity="1" fill-rule="nonzero"/><path fill="#ffffff" d="M 148.898438 165.878906 C 148.183594 165.878906 148.183594 167.003906 148.898438 167.003906 C 149.613281 167.003906 149.613281 165.878906 148.898438 165.878906 Z M 148.898438 165.878906 " fill-opacity="1" fill-rule="nonzero"/><path fill="#ffffff" d="M 154.710938 166.296875 C 155.675781 166.082031 156.40625 165.332031 156.667969 164.386719 C 156.835938 163.816406 156.8125 163.195312 156.679688 162.609375 C 156.609375 162.300781 156.5 162.011719 156.371094 161.726562 C 156.308594 161.605469 156.238281 161.488281 156.167969 161.378906 C 156.109375 161.308594 156.058594 161.226562 155.988281 161.152344 C 155.890625 161.046875 155.761719 161.011719 155.640625 160.949219 C 155.378906 160.84375 155.09375 161.058594 155.007812 161.308594 C 154.949219 161.261719 154.890625 161.238281 154.792969 161.273438 C 154.566406 161.34375 154.363281 161.441406 154.136719 161.511719 C 153.898438 161.59375 153.671875 161.691406 153.445312 161.808594 C 152.992188 162.046875 152.597656 162.40625 152.300781 162.824219 C 151.679688 163.671875 151.621094 164.78125 152.300781 165.605469 C 152.871094 166.308594 153.863281 166.476562 154.710938 166.285156 Z M 153.503906 165.070312 C 153.503906 165.070312 153.527344 165.070312 153.527344 165.070312 C 153.527344 165.070312 153.527344 165.070312 153.503906 165.070312 Z M 153.480469 165.070312 Z M 154.210938 165.175781 C 154.210938 165.175781 154.222656 165.175781 154.234375 165.175781 C 154.234375 165.175781 154.210938 165.175781 154.210938 165.175781 Z M 152.957031 164.03125 C 152.957031 164.03125 152.957031 164.03125 152.957031 164.019531 C 152.957031 163.980469 152.980469 163.933594 152.957031 164.03125 Z M 152.957031 164.03125 C 152.980469 163.945312 152.992188 163.851562 153.015625 163.765625 C 153.015625 163.730469 153.039062 163.707031 153.050781 163.671875 C 153.050781 163.671875 153.074219 163.601562 153.085938 163.589844 C 153.289062 163.171875 153.527344 162.921875 153.839844 162.597656 C 154.007812 162.429688 154.171875 162.261719 154.351562 162.121094 C 154.519531 161.988281 154.722656 161.894531 154.925781 161.808594 C 154.972656 161.785156 154.996094 161.75 155.019531 161.714844 C 155.070312 161.894531 155.152344 162.074219 155.234375 162.25 C 155.273438 162.324219 155.308594 162.394531 155.332031 162.453125 C 155.332031 162.476562 155.367188 162.527344 155.367188 162.539062 C 155.390625 162.609375 155.414062 162.667969 155.4375 162.742188 C 155.460938 162.824219 155.488281 162.90625 155.511719 163.003906 C 155.511719 163.050781 155.535156 163.109375 155.546875 163.160156 C 155.546875 163.183594 155.546875 163.171875 155.546875 163.183594 C 155.546875 163.183594 155.546875 163.183594 155.546875 163.207031 C 155.558594 163.410156 155.558594 163.613281 155.546875 163.816406 C 155.546875 163.839844 155.546875 163.875 155.546875 163.875 C 155.546875 163.921875 155.535156 163.957031 155.523438 164.007812 C 155.5 164.101562 155.476562 164.183594 155.4375 164.28125 C 155.4375 164.304688 155.4375 164.292969 155.4375 164.304688 C 155.4375 164.304688 155.4375 164.304688 155.425781 164.328125 C 155.402344 164.375 155.378906 164.425781 155.355469 164.472656 C 155.34375 164.507812 155.320312 164.53125 155.308594 164.566406 C 155.285156 164.589844 155.273438 164.625 155.246094 164.652344 C 155.199219 164.710938 155.210938 164.710938 155.261719 164.640625 C 155.246094 164.699219 155.140625 164.78125 155.09375 164.816406 C 155.09375 164.816406 155.058594 164.855469 155.046875 164.867188 C 155.046875 164.867188 155.046875 164.867188 155.03125 164.867188 C 154.960938 164.914062 154.902344 164.960938 154.816406 164.996094 C 154.78125 165.019531 154.746094 165.03125 154.710938 165.054688 C 154.628906 165.082031 154.554688 165.117188 154.472656 165.128906 C 154.449219 165.128906 154.375 165.152344 154.304688 165.164062 C 154.304688 165.164062 154.292969 165.164062 154.269531 165.164062 C 154.234375 165.164062 154.1875 165.164062 154.148438 165.164062 C 154.054688 165.164062 153.972656 165.164062 153.875 165.164062 C 153.851562 165.164062 153.816406 165.164062 153.792969 165.152344 C 153.71875 165.140625 153.636719 165.117188 153.566406 165.082031 C 153.554688 165.082031 153.542969 165.082031 153.542969 165.082031 C 153.515625 165.082031 153.503906 165.054688 153.492188 165.054688 C 153.457031 165.042969 153.421875 165.019531 153.386719 164.996094 C 153.363281 164.984375 153.339844 164.972656 153.328125 164.949219 C 153.300781 164.925781 153.289062 164.925781 153.289062 164.925781 C 153.253906 164.890625 153.207031 164.839844 153.195312 164.816406 C 153.171875 164.792969 153.148438 164.757812 153.136719 164.734375 C 153.113281 164.699219 153.085938 164.652344 153.0625 164.613281 C 153.0625 164.601562 153.0625 164.601562 153.050781 164.589844 C 153.050781 164.589844 153.050781 164.589844 153.050781 164.566406 C 153.027344 164.496094 153.003906 164.410156 152.992188 164.339844 C 152.992188 164.316406 152.992188 164.292969 152.992188 164.28125 C 152.992188 164.234375 152.992188 164.195312 152.992188 164.148438 C 152.992188 164.113281 152.992188 164.066406 152.992188 164.03125 Z M 152.957031 164.03125 " fill-opacity="1" fill-rule="nonzero"/><path fill="#ffffff" d="M 159.628906 166.882812 C 160.738281 167.097656 161.824219 166.546875 162.265625 165.511719 C 162.660156 164.578125 162.578125 163.410156 161.882812 162.644531 C 161.882812 162.632812 161.882812 162.621094 161.882812 162.609375 C 161.683594 162.011719 161.011719 161.796875 160.441406 161.726562 C 159.925781 161.667969 159.402344 161.773438 158.925781 161.976562 C 157.933594 162.40625 157.242188 163.410156 157.382812 164.507812 C 157.539062 165.640625 158.484375 166.667969 159.617188 166.882812 Z M 158.507812 164.089844 C 158.507812 164.089844 158.507812 164.042969 158.507812 164.042969 C 158.507812 164.007812 158.53125 163.957031 158.53125 163.921875 C 158.542969 163.875 158.554688 163.828125 158.578125 163.792969 C 158.578125 163.765625 158.601562 163.742188 158.601562 163.742188 C 158.636719 163.660156 158.6875 163.589844 158.734375 163.515625 C 158.734375 163.503906 158.734375 163.503906 158.746094 163.492188 C 158.78125 163.457031 158.804688 163.421875 158.839844 163.386719 C 158.875 163.351562 158.914062 163.3125 158.949219 163.289062 C 158.960938 163.277344 159.078125 163.183594 159.019531 163.230469 C 158.960938 163.277344 159.054688 163.207031 159.078125 163.195312 C 159.128906 163.160156 159.175781 163.136719 159.222656 163.109375 C 159.269531 163.085938 159.316406 163.050781 159.367188 163.027344 C 159.390625 163.027344 159.414062 163.003906 159.4375 162.992188 C 159.53125 162.957031 159.617188 162.921875 159.710938 162.894531 C 159.761719 162.882812 159.820312 162.871094 159.867188 162.859375 C 159.890625 162.859375 159.902344 162.859375 159.925781 162.859375 C 160.035156 162.859375 160.128906 162.847656 160.238281 162.859375 C 160.285156 162.859375 160.332031 162.859375 160.390625 162.859375 C 160.40625 162.859375 160.417969 162.859375 160.441406 162.859375 C 160.546875 162.882812 160.644531 162.90625 160.75 162.945312 C 160.773438 162.945312 160.796875 162.96875 160.796875 162.96875 C 160.847656 162.992188 160.894531 163.015625 160.941406 163.039062 C 161.0625 163.097656 161.179688 163.148438 161.300781 163.171875 C 161.359375 163.253906 161.40625 163.335938 161.453125 163.421875 C 161.453125 163.445312 161.503906 163.527344 161.480469 163.46875 C 161.492188 163.515625 161.515625 163.550781 161.527344 163.601562 C 161.5625 163.695312 161.574219 163.792969 161.597656 163.886719 C 161.597656 163.898438 161.597656 163.898438 161.597656 163.910156 C 161.597656 163.910156 161.597656 163.910156 161.597656 163.933594 C 161.597656 163.980469 161.597656 164.03125 161.597656 164.078125 C 161.597656 164.171875 161.597656 164.269531 161.597656 164.363281 C 161.597656 164.363281 161.597656 164.386719 161.597656 164.386719 C 161.597656 164.386719 161.597656 164.410156 161.597656 164.410156 C 161.597656 164.449219 161.585938 164.496094 161.574219 164.53125 C 161.550781 164.625 161.527344 164.722656 161.492188 164.816406 C 161.492188 164.839844 161.453125 164.902344 161.453125 164.902344 C 161.453125 164.925781 161.429688 164.949219 161.417969 164.972656 C 161.371094 165.054688 161.335938 165.140625 161.277344 165.210938 C 161.277344 165.222656 161.179688 165.34375 161.226562 165.285156 C 161.265625 165.234375 161.179688 165.332031 161.167969 165.355469 C 161.109375 165.425781 161.050781 165.484375 160.976562 165.558594 C 160.953125 165.570312 160.859375 165.652344 160.90625 165.617188 C 160.964844 165.570312 160.847656 165.652344 160.835938 165.664062 C 160.796875 165.6875 160.761719 165.699219 160.726562 165.726562 C 160.703125 165.726562 160.667969 165.761719 160.644531 165.761719 C 160.558594 165.785156 160.488281 165.808594 160.40625 165.832031 C 160.390625 165.832031 160.367188 165.832031 160.355469 165.832031 C 160.296875 165.832031 160.238281 165.832031 160.175781 165.832031 C 160.128906 165.832031 160.082031 165.832031 160.035156 165.832031 C 160.023438 165.832031 160 165.832031 159.988281 165.832031 C 159.988281 165.832031 159.988281 165.832031 159.976562 165.832031 C 159.867188 165.808594 159.761719 165.785156 159.664062 165.75 C 159.664062 165.75 159.640625 165.75 159.628906 165.738281 C 159.628906 165.738281 159.605469 165.738281 159.59375 165.726562 C 159.558594 165.699219 159.507812 165.6875 159.460938 165.664062 C 159.414062 165.640625 159.367188 165.605469 159.316406 165.582031 C 159.292969 165.570312 159.28125 165.558594 159.257812 165.546875 C 159.257812 165.546875 159.140625 165.460938 159.199219 165.511719 C 159.234375 165.546875 159.128906 165.449219 159.101562 165.425781 C 159.066406 165.390625 159.03125 165.367188 158.996094 165.332031 C 158.960938 165.296875 158.925781 165.246094 158.886719 165.210938 C 158.886719 165.210938 158.863281 165.1875 158.863281 165.175781 C 158.863281 165.175781 158.839844 165.152344 158.839844 165.140625 C 158.78125 165.054688 158.734375 164.972656 158.6875 164.878906 C 158.660156 164.839844 158.648438 164.792969 158.625 164.746094 C 158.671875 164.855469 158.613281 164.699219 158.601562 164.664062 C 158.589844 164.613281 158.566406 164.554688 158.554688 164.507812 C 158.554688 164.484375 158.542969 164.425781 158.542969 164.410156 C 158.542969 164.316406 158.542969 164.222656 158.542969 164.125 Z M 158.507812 164.089844 " fill-opacity="1" fill-rule="nonzero"/><path fill="#ffffff" d="M 163.566406 165.832031 C 163.566406 165.832031 163.566406 165.832031 163.578125 165.832031 C 163.617188 165.832031 163.664062 165.808594 163.554688 165.832031 Z M 163.566406 165.832031 " fill-opacity="1" fill-rule="nonzero"/><path fill="#ffffff" d="M 168.292969 165.1875 C 168.652344 164.914062 169.046875 164.675781 169.453125 164.472656 C 169.871094 165.296875 170.777344 165.890625 171.71875 165.808594 C 172.28125 165.761719 172.804688 165.535156 173.222656 165.140625 C 173.59375 164.792969 174.046875 164.101562 173.691406 163.613281 C 173.59375 163.492188 173.4375 163.421875 173.296875 163.503906 C 172.972656 163.707031 172.867188 164.101562 172.589844 164.386719 C 172.351562 164.640625 172.054688 164.839844 171.707031 164.878906 C 170.980469 164.972656 170.300781 164.4375 170.109375 163.753906 C 170.050781 163.550781 169.796875 163.375 169.582031 163.457031 C 168.925781 163.71875 168.332031 164.066406 167.875 164.613281 C 167.769531 164.746094 167.734375 164.925781 167.851562 165.070312 C 167.949219 165.1875 168.164062 165.257812 168.304688 165.152344 Z M 168.292969 165.1875 " fill-opacity="1" fill-rule="nonzero"/><path fill="#ffffff" d="M 177.078125 166.214844 C 176.601562 166.523438 176.902344 167.359375 177.484375 167.167969 C 177.9375 167.015625 178.417969 166.976562 178.882812 167.074219 C 179.382812 167.179688 179.753906 167.445312 180.207031 167.671875 C 180.601562 167.863281 181.171875 167.433594 180.863281 167.015625 C 180.433594 166.417969 179.707031 166.105469 178.953125 166.011719 C 179.289062 165.675781 179.609375 165.332031 179.898438 164.949219 C 180.515625 164.125 181.160156 163.0625 181.042969 161.988281 C 180.945312 161.140625 180.351562 160.496094 179.539062 160.257812 C 178.835938 160.042969 177.988281 160.164062 177.460938 160.710938 C 176.851562 161.34375 176.804688 162.539062 177.746094 162.859375 C 178.023438 162.957031 178.140625 162.5625 177.9375 162.417969 C 177.6875 162.238281 177.761719 161.796875 177.878906 161.558594 C 178.011719 161.296875 178.25 161.140625 178.535156 161.070312 C 179.074219 160.9375 179.765625 161.175781 180.027344 161.691406 C 180.445312 162.527344 179.695312 163.601562 179.214844 164.246094 C 178.644531 165.03125 177.914062 165.699219 177.101562 166.226562 Z M 177.078125 166.214844 " fill-opacity="1" fill-rule="nonzero"/><path fill="#ffffff" d="M 187.605469 163.816406 C 186.84375 162.933594 185.554688 162.429688 184.410156 162.730469 C 183.261719 163.027344 182.367188 164.171875 182.425781 165.367188 C 182.488281 166.488281 183.371094 167.382812 184.445312 167.609375 C 185.53125 167.835938 186.652344 167.371094 187.117188 166.320312 C 187.367188 165.761719 187.429688 165.152344 187.296875 164.542969 C 187.273438 164.425781 187.226562 164.304688 187.191406 164.183594 C 187.191406 164.183594 187.191406 164.183594 187.203125 164.195312 C 187.453125 164.460938 187.835938 164.066406 187.59375 163.804688 Z M 185.625 163.753906 C 185.6875 163.898438 185.734375 164.019531 185.839844 164.136719 C 185.863281 164.171875 185.902344 164.195312 185.925781 164.234375 C 185.9375 164.246094 185.9375 164.246094 185.949219 164.257812 C 185.949219 164.257812 185.949219 164.257812 185.960938 164.292969 C 186.007812 164.363281 186.042969 164.4375 186.089844 164.519531 C 186.101562 164.554688 186.128906 164.578125 186.140625 164.613281 C 186.089844 164.507812 186.164062 164.699219 186.175781 164.722656 C 186.199219 164.804688 186.222656 164.890625 186.234375 164.972656 C 186.234375 164.984375 186.234375 164.972656 186.234375 164.996094 C 186.234375 164.996094 186.234375 164.996094 186.234375 165.007812 C 186.234375 165.054688 186.234375 165.09375 186.234375 165.140625 C 186.234375 165.222656 186.234375 165.320312 186.234375 165.402344 C 186.234375 165.425781 186.234375 165.425781 186.234375 165.4375 C 186.234375 165.4375 186.234375 165.4375 186.234375 165.460938 C 186.234375 165.511719 186.210938 165.570312 186.199219 165.617188 C 186.175781 165.6875 186.152344 165.761719 186.128906 165.84375 C 186.128906 165.867188 186.089844 165.914062 186.089844 165.929688 C 186.066406 165.964844 186.054688 166 186.03125 166.035156 C 186.007812 166.070312 185.984375 166.105469 185.960938 166.144531 C 185.960938 166.15625 185.960938 166.144531 185.949219 166.167969 C 185.949219 166.167969 185.949219 166.167969 185.9375 166.167969 C 185.914062 166.203125 185.875 166.226562 185.851562 166.261719 C 185.839844 166.273438 185.722656 166.382812 185.757812 166.359375 C 185.648438 166.441406 185.507812 166.5 185.386719 166.535156 C 185.351562 166.535156 185.316406 166.546875 185.28125 166.558594 C 185.28125 166.558594 185.207031 166.558594 185.183594 166.574219 C 185.089844 166.574219 184.992188 166.574219 184.898438 166.574219 C 184.898438 166.574219 184.851562 166.574219 184.8125 166.574219 C 184.777344 166.574219 184.730469 166.558594 184.730469 166.558594 C 184.648438 166.535156 184.5625 166.511719 184.46875 166.488281 C 184.46875 166.488281 184.371094 166.453125 184.371094 166.453125 C 184.347656 166.453125 184.324219 166.429688 184.3125 166.417969 C 184.21875 166.371094 184.121094 166.308594 184.039062 166.25 C 184.015625 166.238281 184.015625 166.238281 184.015625 166.226562 C 184.015625 166.226562 184.015625 166.226562 183.992188 166.203125 C 183.953125 166.179688 183.929688 166.144531 183.894531 166.105469 C 183.859375 166.070312 183.835938 166.046875 183.800781 166.011719 C 183.800781 166.011719 183.75 165.953125 183.738281 165.941406 C 183.691406 165.878906 183.644531 165.808594 183.609375 165.738281 C 183.597656 165.699219 183.574219 165.675781 183.5625 165.640625 C 183.597656 165.726562 183.523438 165.535156 183.523438 165.523438 C 183.441406 165.199219 183.476562 164.828125 183.644531 164.507812 C 183.824219 164.148438 184.121094 163.839844 184.46875 163.636719 C 184.851562 163.421875 185.28125 163.363281 185.6875 163.421875 C 185.625 163.527344 185.601562 163.648438 185.636719 163.753906 Z M 185.625 163.753906 " fill-opacity="1" fill-rule="nonzero"/><path fill="#ffffff" d="M 189.503906 167.886719 C 189.578125 167.898438 189.636719 167.898438 189.707031 167.886719 C 189.792969 167.863281 189.875 167.8125 189.933594 167.753906 C 189.996094 167.695312 190.042969 167.609375 190.066406 167.527344 C 190.078125 167.492188 190.089844 167.457031 190.113281 167.421875 C 190.113281 167.382812 190.125 167.371094 190.125 167.335938 C 190.125 167.289062 190.125 167.277344 190.125 167.253906 L 190.125 167.191406 C 190.125 167.121094 190.101562 167.050781 190.066406 166.976562 C 190.042969 166.929688 190.007812 166.894531 189.957031 166.859375 C 189.921875 166.824219 189.875 166.800781 189.816406 166.789062 C 189.742188 166.761719 189.671875 166.761719 189.589844 166.789062 C 189.578125 166.789062 189.554688 166.789062 189.542969 166.800781 C 189.515625 166.800781 189.492188 166.8125 189.46875 166.835938 C 189.410156 166.859375 189.363281 166.882812 189.3125 166.929688 C 189.277344 166.953125 189.253906 166.992188 189.21875 167.015625 C 189.160156 167.074219 189.113281 167.15625 189.085938 167.242188 C 189.0625 167.335938 189.0625 167.421875 189.085938 167.515625 C 189.097656 167.550781 189.125 167.597656 189.136719 167.636719 C 189.183594 167.707031 189.242188 167.777344 189.3125 167.8125 C 189.375 167.851562 189.433594 167.875 189.503906 167.875 Z M 189.503906 167.886719 " fill-opacity="1" fill-rule="nonzero"/><path fill="#ffffff" d="M 196.082031 164.746094 C 196.152344 164.6875 196.203125 164.589844 196.191406 164.484375 C 196.140625 163.921875 195.773438 163.515625 195.257812 163.324219 C 194.722656 163.121094 194.125 163.253906 193.648438 163.550781 C 192.667969 164.160156 191.796875 165.390625 192 166.585938 C 192.15625 167.5625 193.0625 168.386719 194.015625 168.542969 C 195.101562 168.722656 196.023438 168.113281 196.40625 167.097656 C 196.667969 166.394531 196.59375 165.367188 196.070312 164.757812 Z M 195.28125 166.777344 C 195.28125 166.800781 195.246094 166.847656 195.28125 166.777344 Z M 195.332031 166.644531 C 195.332031 166.644531 195.304688 166.726562 195.28125 166.777344 C 195.246094 166.847656 195.210938 166.90625 195.175781 166.976562 C 195.164062 167.003906 195.140625 167.027344 195.128906 167.050781 C 195.128906 167.050781 195.128906 167.050781 195.128906 167.0625 C 195.128906 167.0625 195.128906 167.0625 195.117188 167.074219 C 195.054688 167.132812 195.007812 167.179688 194.949219 167.230469 C 194.914062 167.253906 194.875 167.277344 194.828125 167.300781 C 194.804688 167.3125 194.78125 167.324219 194.757812 167.335938 C 194.757812 167.335938 194.746094 167.335938 194.734375 167.335938 C 194.6875 167.347656 194.636719 167.371094 194.578125 167.382812 C 194.566406 167.382812 194.507812 167.382812 194.496094 167.394531 C 194.433594 167.394531 194.363281 167.394531 194.304688 167.394531 C 194.292969 167.394531 194.257812 167.394531 194.230469 167.394531 C 194.207031 167.394531 194.183594 167.394531 194.171875 167.382812 C 194.089844 167.359375 194.003906 167.335938 193.921875 167.3125 C 193.8125 167.277344 193.886719 167.300781 193.921875 167.3125 C 193.863281 167.289062 193.8125 167.253906 193.753906 167.230469 C 193.695312 167.191406 193.636719 167.15625 193.574219 167.109375 C 193.5625 167.097656 193.503906 167.050781 193.503906 167.050781 C 193.480469 167.027344 193.457031 167.003906 193.433594 166.976562 C 193.410156 166.953125 193.382812 166.929688 193.359375 166.90625 C 193.359375 166.90625 193.3125 166.847656 193.300781 166.835938 C 193.253906 166.777344 193.21875 166.703125 193.183594 166.632812 C 193.183594 166.632812 193.15625 166.585938 193.144531 166.5625 C 193.144531 166.535156 193.121094 166.476562 193.121094 166.476562 C 193.121094 166.441406 193.097656 166.40625 193.097656 166.382812 C 193.097656 166.382812 193.097656 166.308594 193.085938 166.285156 C 193.074219 166.09375 193.085938 166.023438 193.144531 165.820312 C 193.253906 165.460938 193.515625 165.117188 193.753906 164.804688 C 194.003906 164.496094 194.375 164.125 194.757812 164.101562 C 194.960938 164.089844 195.1875 164.160156 195.316406 164.316406 C 194.972656 164.328125 194.6875 164.722656 194.902344 165.03125 C 194.960938 165.117188 195.019531 165.210938 195.089844 165.285156 C 195.101562 165.296875 195.089844 165.285156 195.089844 165.296875 C 195.117188 165.332031 195.140625 165.367188 195.164062 165.390625 C 195.199219 165.449219 195.234375 165.511719 195.257812 165.570312 C 195.269531 165.605469 195.292969 165.640625 195.304688 165.675781 C 195.257812 165.582031 195.304688 165.664062 195.304688 165.714844 C 195.332031 165.785156 195.34375 165.867188 195.367188 165.941406 C 195.367188 165.941406 195.367188 165.953125 195.367188 165.964844 C 195.367188 165.976562 195.367188 166 195.367188 166.011719 C 195.367188 166.09375 195.367188 166.167969 195.367188 166.25 C 195.367188 166.285156 195.367188 166.332031 195.367188 166.371094 C 195.367188 166.371094 195.367188 166.382812 195.367188 166.40625 C 195.355469 166.476562 195.332031 166.546875 195.316406 166.609375 Z M 195.332031 166.644531 " fill-opacity="1" fill-rule="nonzero"/><path fill="#ffffff" d="M 202.300781 166.203125 C 202.347656 166.128906 202.371094 166.035156 202.371094 165.953125 C 202.371094 165.820312 202.347656 165.675781 202.300781 165.546875 C 202.207031 165.285156 202.074219 165.070312 201.894531 164.855469 C 201.585938 164.496094 201.109375 164.257812 200.652344 164.125 C 199.675781 163.851562 198.601562 164.160156 198.027344 165.019531 C 197.503906 165.808594 197.550781 166.90625 197.992188 167.71875 C 198.492188 168.636719 199.566406 169.113281 200.582031 168.769531 C 201.585938 168.421875 202.359375 167.359375 202.253906 166.285156 C 202.253906 166.273438 202.265625 166.25 202.277344 166.238281 C 202.289062 166.238281 202.300781 166.214844 202.3125 166.203125 Z M 201.179688 167.335938 C 201.09375 167.40625 201.058594 167.445312 201 167.480469 C 200.929688 167.527344 200.84375 167.574219 200.761719 167.621094 C 200.75 167.621094 200.675781 167.660156 200.675781 167.671875 C 200.675781 167.671875 200.652344 167.671875 200.652344 167.683594 C 200.617188 167.695312 200.59375 167.707031 200.558594 167.71875 C 200.476562 167.753906 200.390625 167.777344 200.296875 167.800781 C 200.285156 167.800781 200.222656 167.8125 200.1875 167.824219 C 200.164062 167.824219 200.128906 167.824219 200.105469 167.824219 C 200.058594 167.824219 200.007812 167.824219 199.960938 167.824219 C 199.9375 167.824219 199.902344 167.824219 199.878906 167.824219 C 199.792969 167.8125 199.710938 167.789062 199.628906 167.765625 C 199.628906 167.765625 199.578125 167.753906 199.554688 167.742188 C 199.542969 167.742188 199.484375 167.707031 199.472656 167.707031 C 199.4375 167.695312 199.414062 167.671875 199.375 167.648438 C 199.363281 167.648438 199.339844 167.621094 199.328125 167.609375 C 199.328125 167.609375 199.328125 167.609375 199.316406 167.609375 C 199.28125 167.585938 199.1875 167.492188 199.171875 167.480469 C 199.171875 167.480469 199.125 167.421875 199.101562 167.394531 C 199.101562 167.382812 199.078125 167.359375 199.066406 167.347656 C 199.019531 167.289062 198.984375 167.21875 198.945312 167.144531 C 198.945312 167.144531 198.921875 167.085938 198.910156 167.0625 C 198.910156 167.050781 198.898438 167.027344 198.898438 167.015625 C 198.875 166.941406 198.851562 166.859375 198.828125 166.789062 C 198.828125 166.738281 198.816406 166.703125 198.804688 166.65625 C 198.804688 166.65625 198.804688 166.65625 198.804688 166.632812 C 198.804688 166.546875 198.804688 166.476562 198.804688 166.394531 C 198.804688 166.34375 198.804688 166.308594 198.804688 166.261719 C 198.804688 166.25 198.804688 166.261719 198.804688 166.25 C 198.816406 166.167969 198.839844 166.09375 198.851562 166.023438 C 198.851562 165.988281 198.875 165.953125 198.886719 165.914062 C 198.886719 165.914062 198.886719 165.914062 198.886719 165.890625 C 198.921875 165.820312 198.972656 165.75 199.007812 165.675781 C 199.03125 165.664062 199.078125 165.59375 199.089844 165.582031 C 199.125 165.546875 199.148438 165.523438 199.1875 165.5 C 199.257812 165.449219 199.328125 165.402344 199.414062 165.367188 C 199.449219 165.355469 199.496094 165.34375 199.53125 165.332031 C 199.566406 165.332031 199.617188 165.308594 199.652344 165.296875 C 199.675781 165.296875 199.816406 165.257812 199.722656 165.285156 C 199.628906 165.308594 199.757812 165.285156 199.792969 165.285156 C 199.84375 165.285156 199.878906 165.285156 199.925781 165.285156 C 199.960938 165.285156 199.996094 165.285156 200.03125 165.285156 C 200.046875 165.285156 200.058594 165.285156 200.070312 165.285156 C 200.152344 165.308594 200.246094 165.320312 200.332031 165.34375 C 200.378906 165.355469 200.425781 165.378906 200.476562 165.390625 C 200.476562 165.390625 200.535156 165.414062 200.546875 165.414062 C 200.546875 165.414062 200.523438 165.414062 200.511719 165.402344 C 200.59375 165.449219 200.691406 165.5 200.773438 165.546875 C 200.796875 165.570312 200.832031 165.582031 200.855469 165.605469 C 200.867188 165.617188 200.894531 165.628906 200.90625 165.640625 C 200.976562 165.699219 201.046875 165.761719 201.109375 165.832031 C 201.144531 165.867188 201.179688 165.902344 201.203125 165.941406 C 201.214844 165.964844 201.238281 165.976562 201.25 166 C 201.308594 166.070312 201.238281 165.976562 201.226562 165.976562 C 201.25 165.976562 201.359375 166.191406 201.382812 166.226562 C 201.429688 166.296875 201.5 166.347656 201.5625 166.394531 C 201.5625 166.703125 201.476562 166.976562 201.285156 167.242188 C 201.261719 167.277344 201.203125 167.347656 201.144531 167.40625 Z M 201.179688 167.335938 " fill-opacity="1" fill-rule="nonzero"/><path fill="#ffffff" d="M 218.785156 165.140625 C 218.714844 165.105469 218.75 165.128906 218.785156 165.140625 Z M 218.785156 165.140625 " fill-opacity="1" fill-rule="nonzero"/><path fill="#ffffff" d="M 209.320312 188.628906 C 207.910156 188.894531 206.539062 189.238281 205.140625 189.574219 C 203.6875 189.933594 202.359375 190.335938 201 189.503906 C 199.460938 188.558594 197.957031 187.140625 196.09375 188.261719 C 195.1875 188.796875 194.636719 189.71875 193.921875 190.445312 C 193.457031 190.921875 192.550781 191.746094 191.832031 191.269531 C 191.402344 190.980469 191.332031 190.351562 191.332031 189.882812 C 191.332031 188.90625 191.570312 187.902344 191.976562 186.925781 C 192.941406 185.539062 193.765625 184.082031 194.636719 182.601562 C 194.996094 181.996094 194.136719 181.289062 193.648438 181.839844 C 192.523438 183.09375 191.4375 184.667969 190.722656 186.351562 C 190.113281 187.125 189.480469 187.890625 188.824219 188.605469 C 188.371094 189.109375 186.472656 191.566406 185.722656 191.210938 C 185.015625 190.875 185.472656 189.800781 185.816406 189.441406 C 186.304688 188.953125 187.035156 188.691406 187.667969 188.453125 C 188.203125 188.25 188.371094 187.304688 187.667969 187.1875 C 185.484375 186.828125 183.644531 187.53125 182.082031 189.0625 C 181.675781 189.453125 181.019531 190.207031 180.375 189.945312 C 179.585938 189.632812 180.207031 188.964844 180.289062 188.429688 C 180.421875 187.628906 179.847656 186.9375 179.121094 186.671875 C 177.1875 185.945312 175.433594 188.285156 174.070312 189.277344 C 173.007812 190.050781 171.085938 190.828125 170.109375 189.492188 C 169.988281 189.324219 169.917969 189.15625 169.847656 188.988281 C 170.957031 188.414062 171.933594 187.617188 172.722656 186.554688 C 172.878906 186.351562 172.699219 186.089844 172.507812 186.015625 C 170.609375 185.324219 168.617188 186.863281 168.820312 188.75 C 168.746094 188.785156 168.664062 188.820312 168.59375 188.859375 C 168.4375 188.679688 168.175781 188.582031 167.886719 188.75 C 166.992188 189.25 165.488281 189.621094 164.703125 188.703125 C 164.414062 188.367188 164.332031 187.796875 164.449219 187.316406 C 164.867188 186.972656 165.285156 186.636719 165.703125 186.292969 C 166.207031 185.875 165.644531 185.230469 165.132812 185.3125 C 164.390625 185.433594 163.84375 185.910156 163.519531 186.53125 C 162.636719 187.222656 161.765625 187.914062 160.882812 188.605469 C 161.023438 187.605469 161.300781 186.636719 161.667969 185.71875 C 163.054688 184.128906 164.332031 182.449219 165.40625 180.632812 C 165.738281 180.074219 165.023438 179.644531 164.570312 179.988281 C 162.660156 181.46875 161.238281 183.402344 160.378906 185.585938 C 159.84375 186.171875 159.28125 186.734375 158.699219 187.28125 C 157.625 188.285156 156.273438 189.585938 154.6875 189.539062 C 154.066406 189.527344 153.433594 189.277344 153.039062 188.796875 C 153.671875 188.117188 154.210938 187.328125 154.746094 186.578125 C 154.925781 186.316406 154.722656 186.015625 154.484375 185.921875 C 153.0625 185.347656 151.546875 186.769531 151.679688 188.226562 C 151.679688 188.34375 151.726562 188.441406 151.75 188.546875 C 151.105469 189 150.378906 189.3125 149.566406 189.289062 C 148.851562 189.261719 147.953125 188.964844 147.65625 188.238281 C 148.625 187.820312 149.386719 187.03125 149.671875 185.96875 C 149.746094 185.695312 149.578125 185.359375 149.292969 185.300781 C 147.765625 184.941406 146.75 186.066406 146.546875 187.339844 C 146.308594 187.390625 146.058594 187.414062 145.816406 187.402344 C 145.148438 187.355469 144.671875 187.078125 144.21875 186.601562 C 143.859375 186.230469 143.632812 185.863281 143.097656 185.800781 C 142.023438 185.671875 141.699219 186.804688 141.222656 187.496094 C 139.980469 189.277344 137.535156 187.796875 138.308594 185.863281 C 138.5625 185.230469 137.59375 184.882812 137.246094 185.421875 C 136.640625 186.363281 135.851562 187.6875 134.65625 187.949219 C 134.074219 188.070312 133.203125 187.820312 132.914062 187.246094 C 132.582031 186.578125 133.117188 186.136719 133.429688 185.597656 C 134.203125 184.25 133.191406 182.960938 131.699219 183.558594 C 130.777344 183.929688 129.929688 185.835938 128.855469 185.144531 C 128.164062 184.703125 127.984375 183.902344 127.089844 183.664062 C 125.324219 183.1875 123.746094 184.90625 122.875 186.207031 C 122.671875 186.519531 123.152344 186.898438 123.402344 186.613281 C 124.09375 185.789062 125.0625 184.714844 126.171875 184.535156 C 127.507812 184.308594 127.734375 185.789062 128.75 186.242188 C 129.464844 186.566406 130.167969 186.265625 130.71875 185.765625 C 131.136719 185.382812 131.445312 184.8125 131.984375 184.558594 C 132.414062 184.359375 132.628906 184.558594 132.460938 185.039062 C 132.378906 185.277344 132.054688 185.5625 131.925781 185.777344 C 131.042969 187.269531 132.28125 188.84375 133.824219 189.132812 C 135.207031 189.394531 136.292969 188.570312 137.152344 187.554688 C 137.402344 188.367188 137.988281 189.058594 138.835938 189.347656 C 139.613281 189.609375 140.507812 189.488281 141.210938 189.097656 C 141.519531 188.917969 141.796875 188.679688 142.023438 188.390625 C 142.226562 188.128906 142.417969 187.472656 142.679688 187.292969 C 143.132812 186.972656 144.074219 188.105469 144.613281 188.332031 C 145.257812 188.59375 145.949219 188.65625 146.628906 188.558594 C 146.773438 189.035156 147.023438 189.488281 147.464844 189.824219 C 148.539062 190.648438 150.054688 190.671875 151.261719 190.160156 C 151.632812 190.003906 151.953125 189.789062 152.265625 189.5625 C 153.015625 190.410156 154.339844 190.765625 155.4375 190.589844 C 157.085938 190.3125 158.519531 189.109375 159.746094 187.890625 C 159.605469 188.605469 159.496094 189.335938 159.460938 190.085938 C 159.4375 190.707031 160.175781 190.886719 160.582031 190.550781 C 161.480469 189.824219 162.363281 189.097656 163.246094 188.367188 C 163.28125 188.582031 163.339844 188.808594 163.4375 189.011719 C 164.34375 190.933594 166.957031 190.910156 168.496094 189.835938 C 168.617188 189.753906 168.6875 189.644531 168.722656 189.539062 C 168.808594 189.515625 168.902344 189.488281 168.988281 189.453125 C 169 189.503906 169 189.539062 169.023438 189.585938 C 170.109375 192.164062 173.308594 191.246094 174.992188 189.933594 C 175.613281 189.441406 176.183594 188.882812 176.804688 188.390625 C 177.175781 188.09375 177.605469 187.746094 178.082031 187.640625 C 179.167969 187.402344 179.109375 188.226562 178.929688 188.917969 C 178.703125 189.847656 178.824219 190.601562 179.8125 191.019531 C 180.851562 191.460938 181.792969 190.96875 182.582031 190.289062 C 183.25 189.71875 183.882812 189.214844 184.574219 188.871094 C 184.230469 189.273438 184.003906 189.765625 183.992188 190.375 C 183.953125 191.746094 185.113281 193.105469 186.558594 192.605469 C 187.390625 192.320312 188.0625 191.519531 188.667969 190.910156 C 189.113281 190.46875 189.492188 189.992188 189.910156 189.527344 C 189.730469 191.914062 191.675781 193.882812 193.980469 192.34375 C 195.140625 191.578125 195.675781 189.882812 196.964844 189.359375 C 198.265625 188.832031 199.414062 190.207031 200.414062 190.828125 C 201.65625 191.578125 202.921875 191.578125 204.304688 191.304688 C 206.109375 190.933594 207.910156 190.527344 209.675781 190.015625 C 210.550781 189.765625 210.179688 188.523438 209.308594 188.679688 Z M 153.542969 186.746094 C 153.300781 187.066406 153.027344 187.390625 152.742188 187.6875 C 152.835938 187.246094 153.125 186.863281 153.542969 186.746094 Z M 171.730469 186.613281 C 171.148438 187.292969 170.480469 187.855469 169.726562 188.296875 C 169.761719 187.316406 170.65625 186.53125 171.730469 186.613281 Z M 171.730469 186.613281 " fill-opacity="1" fill-rule="nonzero"/><path fill="#ffffff" d="M 134.527344 202.777344 C 134.527344 202.714844 134.527344 202.644531 134.480469 202.597656 C 132.976562 200.960938 130.085938 202.667969 130.371094 204.722656 C 130.515625 205.808594 131.484375 206.679688 132.546875 206.859375 C 133.09375 206.953125 133.667969 206.894531 134.15625 206.59375 C 134.621094 206.320312 134.945312 205.878906 135.113281 205.378906 C 135.289062 204.851562 135.289062 204.242188 135.113281 203.730469 C 135.003906 203.40625 134.800781 203.050781 134.527344 202.773438 Z M 134 205.519531 C 133.976562 205.542969 134 205.53125 134 205.519531 Z M 134.359375 204.589844 C 134.359375 204.589844 134.347656 204.734375 134.359375 204.683594 C 134.359375 204.625 134.359375 204.710938 134.359375 204.722656 C 134.359375 204.757812 134.347656 204.78125 134.335938 204.816406 C 134.3125 204.910156 134.289062 204.996094 134.265625 205.078125 C 134.265625 205.101562 134.253906 205.113281 134.238281 205.140625 C 134.214844 205.210938 134.277344 205.078125 134.238281 205.140625 C 134.214844 205.1875 134.191406 205.234375 134.167969 205.28125 C 134.121094 205.355469 134.074219 205.4375 134.023438 205.507812 C 134.011719 205.519531 134 205.542969 133.976562 205.554688 C 133.941406 205.59375 133.90625 205.628906 133.871094 205.664062 C 133.859375 205.675781 133.835938 205.699219 133.824219 205.710938 C 133.785156 205.734375 133.75 205.757812 133.714844 205.785156 C 133.667969 205.808594 133.632812 205.832031 133.582031 205.855469 C 133.582031 205.855469 133.488281 205.890625 133.546875 205.878906 C 133.59375 205.855469 133.488281 205.902344 133.488281 205.902344 C 133.40625 205.925781 133.308594 205.949219 133.226562 205.960938 C 133.203125 205.960938 133.152344 205.960938 133.140625 205.960938 C 133.082031 205.960938 133.035156 205.960938 132.976562 205.960938 C 132.925781 205.960938 132.878906 205.960938 132.832031 205.960938 C 132.832031 205.960938 132.820312 205.960938 132.808594 205.960938 C 132.796875 205.960938 132.785156 205.960938 132.761719 205.960938 C 132.652344 205.9375 132.558594 205.914062 132.449219 205.878906 C 132.425781 205.878906 132.316406 205.832031 132.34375 205.84375 C 132.390625 205.867188 132.304688 205.832031 132.292969 205.820312 C 132.269531 205.820312 132.257812 205.796875 132.234375 205.796875 C 132.128906 205.746094 132.03125 205.6875 131.9375 205.617188 C 131.925781 205.605469 131.902344 205.59375 131.886719 205.582031 C 131.828125 205.53125 131.9375 205.617188 131.886719 205.582031 C 131.851562 205.542969 131.816406 205.519531 131.78125 205.484375 C 131.746094 205.449219 131.710938 205.414062 131.671875 205.378906 C 131.660156 205.367188 131.648438 205.339844 131.625 205.328125 C 131.625 205.328125 131.554688 205.234375 131.578125 205.28125 C 131.589844 205.304688 131.53125 205.210938 131.519531 205.1875 C 131.496094 205.152344 131.472656 205.101562 131.445312 205.054688 C 131.421875 205.007812 131.398438 204.972656 131.375 204.925781 C 131.410156 204.996094 131.351562 204.863281 131.339844 204.839844 C 131.328125 204.792969 131.316406 204.746094 131.304688 204.695312 C 131.304688 204.683594 131.292969 204.625 131.28125 204.613281 C 131.269531 204.519531 131.269531 204.410156 131.28125 204.316406 C 131.28125 204.304688 131.28125 204.28125 131.28125 204.265625 C 131.28125 204.21875 131.292969 204.183594 131.304688 204.136719 C 131.304688 204.089844 131.328125 204.050781 131.339844 204.003906 C 131.339844 203.980469 131.351562 203.96875 131.363281 203.945312 C 131.386719 203.863281 131.351562 203.96875 131.363281 203.921875 C 131.398438 203.835938 131.445312 203.765625 131.496094 203.683594 C 131.519531 203.648438 131.542969 203.609375 131.566406 203.574219 C 131.578125 203.5625 131.589844 203.539062 131.613281 203.527344 C 131.671875 203.457031 131.734375 203.394531 131.804688 203.324219 C 131.839844 203.289062 131.875 203.265625 131.914062 203.230469 C 131.960938 203.179688 131.863281 203.265625 131.914062 203.230469 C 131.9375 203.207031 131.972656 203.191406 131.996094 203.167969 C 132.078125 203.109375 132.175781 203.050781 132.269531 203.003906 C 132.304688 202.976562 132.355469 202.964844 132.390625 202.941406 C 132.390625 202.941406 132.472656 202.90625 132.496094 202.90625 C 132.617188 202.859375 132.628906 202.859375 132.617188 202.859375 C 132.628906 202.859375 132.652344 202.847656 132.664062 202.835938 C 132.710938 202.8125 132.761719 202.800781 132.820312 202.789062 C 132.902344 202.761719 133.046875 202.726562 133.09375 202.726562 C 133.238281 202.703125 133.394531 202.726562 133.546875 202.726562 C 133.511719 202.835938 133.523438 202.953125 133.621094 203.0625 C 133.785156 203.242188 133.882812 203.277344 134.050781 203.457031 C 134.097656 203.515625 134.050781 203.433594 134.085938 203.492188 C 134.109375 203.539062 134.144531 203.574219 134.167969 203.621094 C 134.191406 203.660156 134.214844 203.707031 134.226562 203.742188 C 134.226562 203.753906 134.238281 203.777344 134.253906 203.789062 C 134.226562 203.730469 134.253906 203.789062 134.253906 203.8125 C 134.277344 203.898438 134.3125 203.992188 134.324219 204.078125 C 134.324219 204.113281 134.335938 204.148438 134.347656 204.183594 C 134.347656 204.183594 134.347656 204.28125 134.347656 204.292969 C 134.347656 204.386719 134.347656 204.480469 134.347656 204.578125 Z M 134.359375 204.589844 " fill-opacity="1" fill-rule="nonzero"/><path fill="#ffffff" d="M 141.484375 201.714844 C 141.128906 202.382812 140.660156 203.230469 139.898438 203.503906 C 139.242188 203.742188 138.703125 203.324219 138.523438 202.703125 C 138.324219 202.023438 138.609375 201.425781 139.207031 201.070312 C 139.921875 200.652344 140.792969 200.664062 141.484375 201.070312 C 141.761719 201.234375 141.988281 200.816406 141.734375 200.652344 C 141.078125 200.210938 140.160156 199.96875 139.382812 200.125 C 138.574219 200.28125 137.867188 200.855469 137.652344 201.664062 C 137.234375 203.21875 138.609375 205.03125 140.28125 204.328125 C 140.601562 204.195312 140.875 203.96875 141.117188 203.730469 C 141.03125 203.96875 140.925781 204.207031 140.804688 204.445312 C 140.363281 205.246094 139.753906 205.808594 139.015625 206.332031 C 138.488281 206.703125 138.953125 207.550781 139.527344 207.203125 C 140.398438 206.691406 141.101562 205.785156 141.570312 204.898438 C 142.046875 203.980469 142.285156 202.953125 142.261719 201.914062 C 142.261719 201.523438 141.6875 201.34375 141.496094 201.714844 Z M 141.484375 201.714844 " fill-opacity="1" fill-rule="nonzero"/><path fill="#ffffff" d="M 144.074219 206.285156 C 143.441406 206.285156 143.441406 207.261719 144.074219 207.261719 C 144.707031 207.261719 144.707031 206.285156 144.074219 206.285156 Z M 144.074219 206.285156 " fill-opacity="1" fill-rule="nonzero"/><path fill="#ffffff" d="M 153.886719 202.777344 C 153.433594 202.703125 152.980469 202.726562 152.550781 202.894531 C 151.824219 203.179688 151.214844 203.777344 151.058594 204.542969 C 151.046875 204.003906 150.855469 203.445312 150.402344 203.144531 C 150.269531 203.0625 150.128906 203.074219 150.007812 203.132812 C 149.648438 202.65625 149.089844 202.347656 148.46875 202.382812 C 147.441406 202.453125 146.535156 203.347656 146.367188 204.351562 C 146.1875 205.390625 146.761719 206.402344 147.726562 206.820312 C 148.660156 207.226562 149.78125 207.109375 150.460938 206.296875 C 150.785156 205.902344 150.960938 205.4375 151.023438 204.9375 C 151.023438 204.984375 151.023438 205.019531 151.023438 205.066406 C 151.105469 206.105469 151.894531 207.035156 152.910156 207.300781 C 153.886719 207.550781 154.878906 207.074219 155.308594 206.164062 C 155.714844 205.328125 155.628906 204.195312 154.949219 203.515625 C 154.804688 203.085938 154.304688 202.847656 153.886719 202.777344 Z M 148.195312 205.832031 Z M 149.925781 204.949219 C 149.914062 205.019531 149.886719 205.089844 149.863281 205.152344 C 149.863281 205.164062 149.839844 205.210938 149.839844 205.222656 C 149.828125 205.257812 149.804688 205.292969 149.78125 205.328125 C 149.746094 205.390625 149.710938 205.449219 149.660156 205.507812 C 149.648438 205.519531 149.625 205.554688 149.613281 205.554688 C 149.589844 205.59375 149.554688 205.617188 149.53125 205.652344 C 149.507812 205.675781 149.484375 205.6875 149.472656 205.710938 C 149.472656 205.710938 149.472656 205.710938 149.457031 205.710938 C 149.386719 205.757812 149.304688 205.808594 149.230469 205.84375 C 149.207031 205.84375 149.183594 205.867188 149.171875 205.867188 C 149.136719 205.878906 149.089844 205.890625 149.054688 205.902344 C 149.015625 205.902344 148.980469 205.914062 148.957031 205.925781 C 148.875 205.925781 148.789062 205.925781 148.707031 205.925781 C 148.695312 205.925781 148.648438 205.925781 148.636719 205.925781 C 148.597656 205.925781 148.550781 205.914062 148.515625 205.902344 C 148.445312 205.878906 148.359375 205.855469 148.289062 205.832031 C 148.289062 205.832031 148.265625 205.832031 148.253906 205.820312 C 148.21875 205.808594 148.195312 205.796875 148.15625 205.769531 C 148.085938 205.734375 148.015625 205.6875 147.941406 205.640625 C 147.941406 205.640625 147.941406 205.640625 147.929688 205.640625 C 147.882812 205.605469 147.847656 205.570312 147.800781 205.519531 C 147.789062 205.507812 147.714844 205.414062 147.691406 205.402344 C 147.644531 205.339844 147.609375 205.28125 147.574219 205.222656 C 147.574219 205.210938 147.550781 205.164062 147.539062 205.152344 C 147.539062 205.125 147.511719 205.101562 147.511719 205.078125 C 147.5 205.03125 147.488281 204.996094 147.476562 204.949219 C 147.476562 204.925781 147.476562 204.898438 147.476562 204.886719 C 147.476562 204.804688 147.476562 204.722656 147.476562 204.636719 C 147.476562 204.613281 147.5 204.46875 147.476562 204.601562 C 147.476562 204.554688 147.488281 204.519531 147.5 204.46875 C 147.523438 204.386719 147.550781 204.304688 147.585938 204.21875 C 147.609375 204.160156 147.632812 204.113281 147.667969 204.050781 C 147.691406 204.015625 147.714844 203.96875 147.738281 203.933594 C 147.738281 203.933594 147.777344 203.886719 147.789062 203.875 C 147.835938 203.8125 147.894531 203.753906 147.953125 203.695312 C 147.980469 203.671875 148.015625 203.648438 148.050781 203.609375 C 148.050781 203.609375 148.050781 203.609375 148.0625 203.609375 C 148.144531 203.550781 148.242188 203.503906 148.335938 203.457031 C 148.347656 203.457031 148.347656 203.457031 148.359375 203.457031 C 148.359375 203.457031 148.359375 203.457031 148.382812 203.457031 C 148.445312 203.445312 148.503906 203.417969 148.5625 203.40625 C 148.613281 203.40625 148.648438 203.394531 148.695312 203.382812 C 148.71875 203.382812 148.71875 203.382812 148.71875 203.382812 C 148.71875 203.382812 148.71875 203.382812 148.742188 203.382812 C 148.789062 203.382812 148.839844 203.382812 148.886719 203.382812 C 148.898438 203.382812 148.898438 203.382812 148.910156 203.382812 C 148.933594 203.382812 148.96875 203.382812 148.992188 203.40625 C 149.125 203.445312 149.125 203.445312 149.242188 203.515625 C 149.542969 203.695312 149.757812 204.027344 149.746094 204.410156 C 149.746094 204.589844 149.875 204.695312 150.03125 204.734375 C 150.03125 204.769531 150.03125 204.792969 150.03125 204.828125 C 150.03125 204.828125 150.03125 204.828125 150.03125 204.839844 C 150.03125 204.886719 150.019531 204.925781 150.007812 204.972656 Z M 154.554688 204.027344 C 154.578125 204.027344 154.589844 204.027344 154.554688 204.027344 Z M 154.734375 204.996094 C 154.734375 204.996094 154.734375 204.996094 154.734375 205.007812 C 154.734375 205.019531 154.734375 205.042969 154.734375 205.054688 C 154.722656 205.140625 154.699219 205.222656 154.675781 205.292969 C 154.675781 205.328125 154.652344 205.367188 154.640625 205.390625 C 154.640625 205.402344 154.628906 205.425781 154.617188 205.4375 C 154.542969 205.59375 154.472656 205.734375 154.375 205.867188 C 154.375 205.867188 154.375 205.867188 154.351562 205.890625 C 154.328125 205.914062 154.304688 205.9375 154.28125 205.960938 C 154.257812 205.984375 154.222656 206.023438 154.199219 206.046875 C 154.160156 206.082031 154.078125 206.128906 154.160156 206.082031 C 154.101562 206.117188 154.042969 206.164062 153.972656 206.199219 C 153.933594 206.226562 153.898438 206.238281 153.863281 206.261719 C 153.863281 206.261719 153.863281 206.261719 153.886719 206.261719 C 153.886719 206.261719 153.875 206.261719 153.863281 206.261719 C 153.863281 206.261719 153.851562 206.261719 153.839844 206.261719 C 153.839844 206.261719 153.828125 206.261719 153.816406 206.261719 C 153.769531 206.273438 153.730469 206.285156 153.683594 206.296875 C 153.683594 206.296875 153.648438 206.296875 153.625 206.308594 C 153.613281 206.308594 153.527344 206.308594 153.515625 206.308594 C 153.46875 206.308594 153.410156 206.308594 153.351562 206.308594 C 153.339844 206.308594 153.3125 206.308594 153.300781 206.308594 C 153.265625 206.308594 153.21875 206.296875 153.183594 206.285156 C 153.136719 206.285156 153.085938 206.261719 153.050781 206.25 C 153.027344 206.25 152.96875 206.214844 152.957031 206.214844 C 152.882812 206.175781 152.8125 206.140625 152.753906 206.105469 C 152.71875 206.082031 152.667969 206.058594 152.632812 206.023438 C 152.632812 206.023438 152.632812 206.023438 152.621094 206.023438 C 152.609375 206.011719 152.585938 205.984375 152.574219 205.984375 C 152.503906 205.925781 152.441406 205.867188 152.382812 205.796875 C 152.359375 205.769531 152.289062 205.675781 152.347656 205.757812 C 152.3125 205.710938 152.289062 205.675781 152.253906 205.628906 C 152.203125 205.554688 152.167969 205.472656 152.132812 205.402344 C 152.132812 205.390625 152.121094 205.367188 152.109375 205.355469 C 152.097656 205.304688 152.074219 205.246094 152.0625 205.199219 C 152.0625 205.164062 152.050781 205.125 152.039062 205.089844 C 152.039062 205.078125 152.039062 205.054688 152.039062 205.042969 C 152.039062 204.996094 152.039062 204.949219 152.039062 204.898438 C 152.039062 204.875 152.039062 204.816406 152.039062 204.804688 C 152.050781 204.734375 152.0625 204.660156 152.085938 204.601562 C 152.085938 204.589844 152.097656 204.566406 152.097656 204.554688 C 152.109375 204.519531 152.144531 204.480469 152.144531 204.46875 C 152.15625 204.433594 152.179688 204.410156 152.203125 204.386719 C 152.203125 204.386719 152.214844 204.363281 152.226562 204.351562 C 152.289062 204.292969 152.335938 204.230469 152.394531 204.171875 C 152.417969 204.148438 152.453125 204.125 152.480469 204.101562 C 152.382812 204.195312 152.480469 204.101562 152.503906 204.089844 C 152.574219 204.039062 152.644531 203.992188 152.730469 203.957031 C 152.753906 203.945312 152.789062 203.921875 152.824219 203.910156 C 152.847656 203.910156 152.859375 203.898438 152.882812 203.886719 C 152.980469 203.851562 153.0625 203.824219 153.160156 203.8125 C 153.195312 203.8125 153.328125 203.789062 153.242188 203.800781 C 153.160156 203.800781 153.3125 203.800781 153.339844 203.800781 C 153.421875 203.800781 153.515625 203.800781 153.601562 203.800781 C 153.613281 203.800781 153.648438 203.800781 153.683594 203.800781 C 153.683594 203.800781 153.671875 203.800781 153.707031 203.800781 C 153.730469 203.800781 153.757812 203.800781 153.78125 203.8125 C 153.863281 203.835938 153.945312 203.863281 154.042969 203.898438 C 154.089844 203.921875 154.125 203.933594 154.171875 203.957031 C 154.210938 203.96875 154.246094 203.980469 154.28125 203.992188 C 154.328125 204.003906 154.363281 204.015625 154.414062 204.027344 C 154.425781 204.027344 154.449219 204.027344 154.472656 204.039062 C 154.484375 204.066406 154.507812 204.078125 154.53125 204.113281 C 154.578125 204.183594 154.617188 204.253906 154.652344 204.328125 C 154.628906 204.265625 154.664062 204.363281 154.675781 204.386719 C 154.6875 204.421875 154.699219 204.457031 154.710938 204.507812 C 154.710938 204.542969 154.722656 204.578125 154.734375 204.613281 C 154.734375 204.636719 154.757812 204.757812 154.746094 204.683594 C 154.746094 204.769531 154.746094 204.851562 154.746094 204.9375 C 154.746094 204.972656 154.746094 205.007812 154.746094 205.042969 Z M 154.734375 204.996094 " fill-opacity="1" fill-rule="nonzero"/><path fill="#ffffff" d="M 153.839844 206.296875 C 153.839844 206.296875 153.863281 206.296875 153.863281 206.296875 C 153.839844 206.296875 153.828125 206.308594 153.839844 206.296875 Z M 153.839844 206.296875 " fill-opacity="1" fill-rule="nonzero"/><path fill="#ffffff" d="M 165.609375 205.152344 C 165.609375 205.378906 165.609375 205.472656 165.371094 205.617188 C 165.15625 205.746094 164.867188 205.796875 164.628906 205.769531 C 164.273438 205.734375 163.960938 205.484375 163.6875 205.269531 C 163.339844 204.996094 163.03125 204.695312 162.671875 204.445312 C 162.015625 203.980469 161.265625 203.824219 160.511719 204.160156 C 159.902344 204.421875 159.402344 205.054688 159.6875 205.734375 C 159.867188 206.175781 160.546875 206.023438 160.429688 205.53125 C 160.296875 204.996094 161.132812 204.792969 161.515625 204.851562 C 161.882812 204.910156 162.207031 205.199219 162.480469 205.4375 C 162.804688 205.710938 163.101562 206.011719 163.449219 206.261719 C 164.058594 206.703125 164.796875 206.894531 165.523438 206.644531 C 166.167969 206.429688 166.851562 205.785156 166.574219 205.03125 C 166.382812 204.53125 165.632812 204.589844 165.621094 205.164062 Z M 165.609375 205.152344 " fill-opacity="1" fill-rule="nonzero"/><path fill="#ffffff" d="M 176.101562 206.808594 C 175.3125 207.226562 174.574219 206.628906 173.878906 206.1875 C 174.417969 205.699219 174.894531 205.125 175.230469 204.46875 C 175.410156 204.113281 175.5625 203.730469 175.660156 203.335938 C 175.753906 202.90625 175.800781 202.441406 175.457031 202.105469 C 174.882812 201.582031 173.917969 201.699219 173.261719 202.011719 C 172.507812 202.371094 171.945312 203.085938 171.898438 203.933594 C 171.886719 204.160156 172.234375 204.195312 172.292969 203.980469 C 172.4375 203.40625 172.832031 202.894531 173.34375 202.609375 C 173.59375 202.464844 173.867188 202.382812 174.15625 202.359375 C 174.417969 202.332031 174.789062 202.359375 174.992188 202.535156 C 175.21875 202.738281 174.953125 203.230469 174.871094 203.457031 C 174.765625 203.753906 174.632812 204.039062 174.464844 204.316406 C 174.15625 204.851562 173.75 205.328125 173.273438 205.734375 C 173.234375 205.769531 173.1875 205.796875 173.140625 205.820312 C 172.675781 205.675781 172.1875 205.6875 171.757812 205.949219 C 171.289062 206.226562 171.027344 206.703125 171.136719 207.238281 C 171.183594 207.453125 171.433594 207.585938 171.636719 207.527344 C 172.1875 207.347656 172.699219 207.074219 173.175781 206.75 C 173.425781 206.894531 173.652344 207.085938 173.855469 207.226562 C 174.273438 207.527344 174.703125 207.777344 175.21875 207.847656 C 175.742188 207.921875 176.28125 207.765625 176.53125 207.261719 C 176.660156 206.988281 176.386719 206.679688 176.101562 206.832031 Z M 176.101562 206.808594 " fill-opacity="1" fill-rule="nonzero"/><path fill="#ffffff" d="M 181.566406 204.554688 C 181.066406 204.125 180.363281 203.957031 179.707031 204.050781 C 179.253906 204.125 178.796875 204.339844 178.476562 204.671875 C 178.128906 205.042969 177.976562 205.53125 177.960938 206.035156 C 177.949219 207.011719 178.535156 207.980469 179.453125 208.335938 C 180.503906 208.742188 181.722656 208.136719 182.234375 207.179688 C 182.558594 206.59375 182.628906 205.902344 182.332031 205.292969 C 182.175781 204.972656 181.890625 204.671875 181.566406 204.542969 Z M 181.601562 206.238281 C 181.601562 206.25 181.601562 206.273438 181.601562 206.285156 C 181.601562 206.332031 181.578125 206.378906 181.566406 206.441406 C 181.554688 206.488281 181.542969 206.523438 181.519531 206.570312 C 181.519531 206.570312 181.496094 206.644531 181.519531 206.59375 C 181.542969 206.546875 181.496094 206.65625 181.484375 206.667969 C 181.4375 206.75 181.386719 206.832031 181.328125 206.917969 C 181.316406 206.929688 181.304688 206.941406 181.292969 206.964844 C 181.257812 207.011719 181.210938 207.0625 181.171875 207.097656 C 181.136719 207.132812 181.101562 207.15625 181.078125 207.191406 C 181.066406 207.203125 181.042969 207.214844 181.03125 207.226562 C 181.03125 207.226562 181.03125 207.226562 181.019531 207.238281 C 180.933594 207.300781 180.839844 207.359375 180.742188 207.40625 C 180.71875 207.40625 180.625 207.464844 180.695312 207.429688 C 180.660156 207.441406 180.613281 207.464844 180.566406 207.476562 C 180.515625 207.492188 180.46875 207.503906 180.410156 207.515625 C 180.398438 207.515625 180.339844 207.527344 180.3125 207.527344 C 180.230469 207.527344 180.136719 207.527344 180.039062 207.527344 C 180.027344 207.527344 180.015625 207.527344 180.003906 207.527344 C 180.003906 207.527344 179.96875 207.527344 179.96875 207.527344 C 179.921875 207.515625 179.871094 207.503906 179.824219 207.492188 C 179.777344 207.476562 179.742188 207.464844 179.695312 207.441406 C 179.765625 207.476562 179.695312 207.441406 179.667969 207.417969 C 179.585938 207.382812 179.515625 207.335938 179.441406 207.277344 C 179.515625 207.324219 179.429688 207.261719 179.40625 207.238281 C 179.382812 207.214844 179.347656 207.191406 179.324219 207.15625 C 179.289062 207.121094 179.265625 207.085938 179.226562 207.058594 C 179.226562 207.046875 179.203125 207.023438 179.203125 207.023438 C 179.15625 206.953125 179.109375 206.882812 179.074219 206.808594 C 179.050781 206.773438 179.039062 206.738281 179.023438 206.703125 C 179.023438 206.679688 179.011719 206.65625 179 206.628906 C 178.976562 206.546875 178.953125 206.476562 178.929688 206.390625 C 178.929688 206.355469 178.917969 206.320312 178.90625 206.273438 C 178.90625 206.25 178.90625 206.226562 178.90625 206.199219 C 178.90625 206.117188 178.90625 206.035156 178.90625 205.949219 C 178.90625 205.925781 178.90625 205.890625 178.90625 205.867188 C 178.90625 205.867188 178.917969 205.785156 178.929688 205.769531 C 178.929688 205.734375 178.953125 205.699219 178.953125 205.664062 C 178.953125 205.640625 179 205.53125 178.976562 205.570312 C 178.964844 205.617188 179 205.519531 179.011719 205.496094 C 179.039062 205.449219 179.0625 205.402344 179.085938 205.367188 C 179.109375 205.328125 179.121094 205.292969 179.144531 205.269531 C 179.144531 205.257812 179.15625 205.246094 179.167969 205.234375 C 179.167969 205.234375 179.167969 205.234375 179.179688 205.222656 C 179.238281 205.164062 179.300781 205.089844 179.371094 205.03125 C 179.324219 205.066406 179.394531 205.019531 179.40625 205.007812 C 179.441406 204.984375 179.46875 204.972656 179.503906 204.949219 C 179.539062 204.925781 179.585938 204.898438 179.621094 204.886719 C 179.632812 204.886719 179.644531 204.886719 179.65625 204.875 C 179.65625 204.875 179.683594 204.875 179.683594 204.875 C 180.003906 204.757812 180.3125 204.746094 180.636719 204.804688 C 180.554688 204.9375 180.601562 205.164062 180.78125 205.1875 C 180.957031 205.210938 181.089844 205.292969 181.222656 205.378906 C 181.363281 205.472656 181.472656 205.605469 181.554688 205.796875 C 181.53125 205.746094 181.566406 205.855469 181.578125 205.867188 C 181.578125 205.902344 181.589844 205.925781 181.601562 205.960938 C 181.601562 205.960938 181.617188 206.046875 181.601562 206 C 181.601562 205.960938 181.601562 206.070312 181.601562 206.09375 C 181.601562 206.152344 181.601562 206.214844 181.601562 206.273438 Z M 181.601562 206.238281 " fill-opacity="1" fill-rule="nonzero"/><path fill="#ffffff" d="M 185.316406 207.441406 C 184.71875 207.441406 184.71875 208.375 185.316406 208.375 C 185.914062 208.375 185.914062 207.441406 185.316406 207.441406 Z M 185.316406 207.441406 " fill-opacity="1" fill-rule="nonzero"/><path fill="#ffffff" d="M 191.628906 204.984375 C 191.628906 204.984375 191.582031 204.984375 191.558594 204.984375 C 191.449219 204.875 191.34375 204.769531 191.222656 204.683594 C 190.769531 204.363281 190.257812 204.242188 189.707031 204.339844 C 188.574219 204.542969 187.773438 205.734375 187.941406 206.859375 C 188.085938 207.859375 188.96875 208.765625 189.957031 208.945312 C 190.949219 209.125 191.929688 208.636719 192.347656 207.707031 C 192.574219 207.214844 192.65625 206.691406 192.5625 206.152344 C 192.476562 205.664062 192.15625 205.066406 191.617188 204.984375 Z M 191.535156 206.785156 C 191.535156 206.785156 191.535156 206.84375 191.535156 206.859375 C 191.535156 206.90625 191.511719 206.953125 191.5 207 C 191.476562 207.074219 191.449219 207.144531 191.425781 207.214844 C 191.425781 207.214844 191.425781 207.214844 191.425781 207.226562 C 191.402344 207.261719 191.390625 207.300781 191.367188 207.335938 C 191.332031 207.394531 191.296875 207.453125 191.261719 207.503906 C 191.261719 207.503906 191.261719 207.503906 191.261719 207.515625 C 191.222656 207.550781 191.1875 207.597656 191.152344 207.632812 C 191.128906 207.65625 191.046875 207.71875 191.046875 207.730469 C 190.984375 207.765625 190.9375 207.800781 190.878906 207.835938 C 190.878906 207.835938 190.855469 207.835938 190.855469 207.847656 C 190.855469 207.847656 190.792969 207.871094 190.78125 207.871094 C 190.734375 207.882812 190.6875 207.894531 190.640625 207.90625 C 190.617188 207.90625 190.601562 207.90625 190.601562 207.90625 C 190.578125 207.90625 190.566406 207.90625 190.542969 207.90625 C 190.472656 207.90625 190.402344 207.90625 190.339844 207.90625 C 190.316406 207.90625 190.269531 207.90625 190.257812 207.90625 C 190.210938 207.90625 190.160156 207.882812 190.113281 207.871094 C 190.078125 207.871094 190.042969 207.847656 189.996094 207.835938 C 189.996094 207.835938 189.972656 207.835938 189.945312 207.8125 C 189.851562 207.765625 189.757812 207.71875 189.660156 207.644531 C 189.660156 207.644531 189.542969 207.550781 189.589844 207.597656 C 189.648438 207.644531 189.515625 207.539062 189.527344 207.539062 C 189.457031 207.464844 189.386719 207.394531 189.328125 207.324219 C 189.328125 207.3125 189.3125 207.3125 189.300781 207.300781 C 189.277344 207.261719 189.253906 207.226562 189.230469 207.191406 C 189.207031 207.15625 189.183594 207.109375 189.160156 207.058594 C 189.160156 207.046875 189.113281 206.953125 189.097656 206.941406 C 189.074219 206.871094 189.050781 206.808594 189.039062 206.738281 C 189.039062 206.703125 189.027344 206.667969 189.015625 206.628906 C 189.015625 206.617188 189.015625 206.546875 189.015625 206.535156 C 189.015625 206.464844 189.015625 206.390625 189.015625 206.320312 C 189.015625 206.308594 189.027344 206.226562 189.027344 206.226562 C 189.039062 206.152344 189.0625 206.09375 189.085938 206.023438 C 189.097656 205.972656 189.125 205.9375 189.160156 205.855469 C 189.183594 205.808594 189.207031 205.757812 189.242188 205.722656 C 189.242188 205.722656 189.289062 205.664062 189.300781 205.640625 C 189.421875 205.496094 189.578125 205.355469 189.707031 205.28125 C 190.03125 205.078125 190.414062 205.03125 190.804688 205.152344 C 190.984375 205.199219 191.152344 205.304688 191.273438 205.4375 C 191.296875 205.507812 191.320312 205.582031 191.355469 205.652344 C 191.308594 205.570312 191.355469 205.675781 191.367188 205.6875 C 191.378906 205.722656 191.402344 205.757812 191.414062 205.808594 C 191.4375 205.855469 191.4375 205.855469 191.414062 205.820312 C 191.390625 205.746094 191.425781 205.867188 191.425781 205.867188 C 191.425781 205.890625 191.460938 205.960938 191.476562 206 C 191.5 206.070312 191.523438 206.152344 191.546875 206.226562 C 191.546875 206.261719 191.582031 206.488281 191.570312 206.34375 C 191.570312 206.429688 191.582031 206.511719 191.570312 206.582031 C 191.570312 206.628906 191.570312 206.691406 191.570312 206.738281 Z M 191.535156 206.785156 " fill-opacity="1" fill-rule="nonzero"/><path fill="#ffffff" d="M 198.003906 205.140625 C 197.882812 205.101562 197.777344 205.140625 197.707031 205.222656 C 197.289062 204.910156 196.761719 204.734375 196.25 204.757812 C 195.257812 204.792969 194.328125 205.4375 194.160156 206.464844 C 193.980469 207.609375 194.722656 208.753906 195.785156 209.183594 C 196.824219 209.601562 197.933594 209.125 198.492188 208.207031 C 198.78125 207.742188 198.933594 207.167969 198.910156 206.617188 C 198.886719 206.011719 198.636719 205.339844 198.015625 205.140625 Z M 197.921875 206.894531 C 197.921875 206.894531 197.921875 206.988281 197.921875 207 C 197.910156 207.074219 197.898438 207.15625 197.871094 207.226562 C 197.871094 207.261719 197.847656 207.300781 197.835938 207.335938 C 197.835938 207.359375 197.824219 207.382812 197.8125 207.40625 C 197.8125 207.417969 197.765625 207.527344 197.800781 207.453125 C 197.824219 207.394531 197.765625 207.527344 197.765625 207.539062 C 197.742188 207.574219 197.730469 207.621094 197.707031 207.65625 C 197.65625 207.742188 197.609375 207.824219 197.550781 207.894531 C 197.609375 207.824219 197.550781 207.894531 197.515625 207.933594 C 197.492188 207.96875 197.453125 207.992188 197.417969 208.027344 C 197.382812 208.0625 197.359375 208.085938 197.324219 208.109375 C 197.324219 208.109375 197.289062 208.136719 197.277344 208.148438 C 197.203125 208.195312 197.121094 208.242188 197.050781 208.277344 C 197.039062 208.277344 197.023438 208.277344 197 208.289062 C 196.953125 208.300781 196.90625 208.324219 196.859375 208.335938 C 196.835938 208.335938 196.714844 208.363281 196.761719 208.363281 C 196.824219 208.363281 196.726562 208.363281 196.714844 208.363281 C 196.691406 208.363281 196.667969 208.363281 196.65625 208.363281 C 196.609375 208.363281 196.558594 208.363281 196.5 208.363281 C 196.5 208.363281 196.476562 208.363281 196.453125 208.363281 C 196.441406 208.363281 196.417969 208.363281 196.40625 208.363281 C 196.308594 208.335938 196.214844 208.3125 196.117188 208.277344 C 196.09375 208.277344 196.082031 208.265625 196.058594 208.253906 C 196.011719 208.230469 195.949219 208.207031 195.902344 208.171875 C 195.855469 208.136719 195.808594 208.109375 195.761719 208.074219 C 195.6875 208.027344 195.785156 208.097656 195.710938 208.039062 C 195.628906 207.957031 195.53125 207.882812 195.460938 207.800781 C 195.4375 207.777344 195.367188 207.691406 195.390625 207.71875 C 195.402344 207.742188 195.332031 207.632812 195.316406 207.621094 C 195.257812 207.527344 195.210938 207.429688 195.164062 207.335938 C 195.164062 207.324219 195.152344 207.300781 195.140625 207.289062 C 195.140625 207.289062 195.140625 207.289062 195.140625 207.261719 C 195.128906 207.214844 195.101562 207.167969 195.089844 207.121094 C 195.078125 207.074219 195.066406 207.023438 195.054688 206.976562 C 195.054688 206.953125 195.054688 206.929688 195.054688 206.917969 C 195.054688 206.871094 195.054688 206.964844 195.054688 206.882812 C 195.042969 206.628906 195.054688 206.546875 195.117188 206.34375 C 195.152344 206.25 195.152344 206.25 195.210938 206.140625 C 195.234375 206.105469 195.257812 206.070312 195.28125 206.035156 C 195.28125 206.035156 195.28125 206.035156 195.292969 206.011719 C 195.292969 206 195.316406 205.984375 195.332031 205.972656 C 195.546875 205.734375 195.808594 205.59375 196.128906 205.507812 C 196.191406 205.496094 196.238281 205.484375 196.296875 205.472656 C 196.320312 205.472656 196.332031 205.472656 196.355469 205.472656 C 196.308594 205.472656 196.367188 205.472656 196.394531 205.472656 C 196.488281 205.472656 196.59375 205.460938 196.691406 205.472656 C 196.90625 205.472656 197.050781 205.472656 197.253906 205.542969 C 197.480469 205.617188 197.65625 205.757812 197.8125 205.925781 C 197.8125 205.9375 197.8125 205.949219 197.824219 205.960938 C 197.824219 205.960938 197.859375 206.058594 197.871094 206.082031 C 197.871094 206.082031 197.898438 206.140625 197.898438 206.164062 C 197.910156 206.214844 197.921875 206.25 197.933594 206.296875 C 197.957031 206.367188 197.96875 206.453125 197.980469 206.535156 C 197.980469 206.535156 197.980469 206.617188 197.980469 206.644531 C 197.980469 206.679688 197.980469 206.714844 197.980469 206.761719 C 197.980469 206.808594 197.980469 206.871094 197.980469 206.917969 Z M 197.921875 206.894531 " fill-opacity="1" fill-rule="nonzero"/></svg>