<svg xmlns="http://www.w3.org/2000/svg" xmlns:xlink="http://www.w3.org/1999/xlink" width="500" zoomAndPan="magnify" viewBox="0 0 375 374.999991" height="500" preserveAspectRatio="xMidYMid meet" version="1.0"><defs><clipPath id="f49420f18a"><path d="M 38.507812 38.507812 L 336.492188 38.507812 L 336.492188 336.492188 L 38.507812 336.492188 Z M 38.507812 38.507812 " clip-rule="nonzero"/></clipPath><clipPath id="920f269a59"><path d="M 187.5 38.507812 C 105.214844 38.507812 38.507812 105.214844 38.507812 187.5 C 38.507812 269.785156 105.214844 336.492188 187.5 336.492188 C 269.785156 336.492188 336.492188 269.785156 336.492188 187.5 C 336.492188 105.214844 269.785156 38.507812 187.5 38.507812 Z M 187.5 38.507812 " clip-rule="nonzero"/></clipPath><clipPath id="5d295d506f"><path d="M 38.507812 38.507812 L 336.257812 38.507812 L 336.257812 336.257812 L 38.507812 336.257812 Z M 38.507812 38.507812 " clip-rule="nonzero"/></clipPath><clipPath id="698ee73436"><path d="M 187.496094 38.507812 C 105.210938 38.507812 38.507812 105.210938 38.507812 187.496094 C 38.507812 269.777344 105.210938 336.480469 187.496094 336.480469 C 269.777344 336.480469 336.480469 269.777344 336.480469 187.496094 C 336.480469 105.210938 269.777344 38.507812 187.496094 38.507812 Z M 187.496094 38.507812 " clip-rule="nonzero"/></clipPath><clipPath id="bc687cea6d"><path d="M 44.6875 44.6875 L 330.3125 44.6875 L 330.3125 330.3125 L 44.6875 330.3125 Z M 44.6875 44.6875 " clip-rule="nonzero"/></clipPath><clipPath id="4bca45bf1d"><path d="M 187.5 44.6875 C 108.625 44.6875 44.6875 108.625 44.6875 187.5 C 44.6875 266.375 108.625 330.3125 187.5 330.3125 C 266.375 330.3125 330.3125 266.375 330.3125 187.5 C 330.3125 108.625 266.375 44.6875 187.5 44.6875 Z M 187.5 44.6875 " clip-rule="nonzero"/></clipPath><clipPath id="e9638827b5"><path d="M 89.703125 127.355469 L 285.453125 127.355469 L 285.453125 247.355469 L 89.703125 247.355469 Z M 89.703125 127.355469 " clip-rule="nonzero"/></clipPath></defs><g clip-path="url(#f49420f18a)"><g clip-path="url(#920f269a59)"><path fill="#ffffff" d="M 38.507812 38.507812 L 336.492188 38.507812 L 336.492188 336.492188 L 38.507812 336.492188 Z M 38.507812 38.507812 " fill-opacity="1" fill-rule="nonzero"/></g></g><g clip-path="url(#5d295d506f)"><g clip-path="url(#698ee73436)"><path stroke-linecap="butt" transform="matrix(0.75, 0, 0, 0.75, 38.509213, 38.509158)" fill="none" stroke-linejoin="miter" d="M 198.649187 -0.00179351 C 88.935638 -0.00179351 -0.00186799 88.935712 -0.00186799 198.649261 C -0.00186799 308.357602 88.935638 397.295108 198.649187 397.295108 C 308.357527 397.295108 397.295033 308.357602 397.295033 198.649261 C 397.295033 88.935712 308.357527 -0.00179351 198.649187 -0.00179351 Z M 198.649187 -0.00179351 " stroke="#000000" stroke-width="2" stroke-opacity="1" stroke-miterlimit="4"/></g></g><g clip-path="url(#bc687cea6d)"><g clip-path="url(#4bca45bf1d)"><path fill="#cdb4db" d="M 44.6875 44.6875 L 330.3125 44.6875 L 330.3125 330.3125 L 44.6875 330.3125 Z M 44.6875 44.6875 " fill-opacity="1" fill-rule="nonzero"/></g></g><g clip-path="url(#e9638827b5)"><path fill="#231f20" d="M 226.105469 237.355469 L 223.542969 190.757812 L 208.816406 190.757812 C 208.816406 190.546875 209.667969 223.101562 209.667969 223.101562 L 206.683594 223.101562 C 206.683594 223.101562 206.683594 213.738281 206.683594 213.738281 L 196.863281 213.738281 C 196.863281 213.738281 196.863281 235.015625 196.863281 235.015625 L 191.3125 235.015625 C 191.3125 235.015625 190.03125 200.972656 190.03125 200.972656 L 174.023438 202.460938 L 175.09375 222.886719 L 173.171875 222.886719 C 173.171875 222.675781 172.105469 206.078125 172.105469 206.078125 L 162.285156 205.652344 L 162.710938 228.84375 L 159.722656 228.84375 C 159.722656 228.84375 159.082031 201.824219 159.082031 201.824219 L 158.445312 188.632812 L 153.320312 186.078125 L 153.960938 199.484375 L 150.972656 201.824219 L 150.972656 205.441406 C 150.757812 205.441406 147.558594 205.441406 147.558594 205.441406 L 147.558594 244.800781 C 147.558594 244.800781 143.929688 244.800781 143.929688 244.800781 L 143.929688 228.207031 C 143.929688 228.207031 139.445312 228.417969 139.445312 228.417969 L 137.3125 190.332031 L 137.3125 186.929688 C 137.3125 186.929688 141.367188 186.929688 141.367188 186.929688 L 141.367188 178.84375 C 141.367188 178.84375 139.660156 178.417969 139.660156 178.417969 L 139.660156 175.441406 C 139.660156 175.441406 137.097656 175.226562 137.097656 175.226562 L 137.097656 171.824219 C 137.097656 171.824219 136.457031 171.824219 136.457031 171.824219 L 136.457031 157.566406 C 136.457031 157.566406 137.953125 157.355469 137.953125 157.355469 L 138.378906 153.949219 L 136.457031 153.949219 C 136.457031 153.949219 136.03125 127.355469 136.03125 127.355469 L 135.820312 127.355469 C 134.75 127.355469 133.898438 127.355469 132.832031 127.355469 L 132.617188 127.355469 C 132.617188 127.355469 132.617188 154.164062 132.617188 154.164062 L 130.695312 154.164062 C 130.695312 154.164062 131.121094 157.566406 131.121094 157.566406 L 132.402344 157.566406 C 132.402344 157.78125 132.402344 172.035156 132.402344 172.035156 L 131.550781 172.035156 C 131.550781 172.035156 131.550781 175.652344 131.550781 175.652344 L 128.988281 175.652344 C 128.988281 175.867188 128.988281 178.84375 128.988281 178.84375 L 127.066406 179.269531 L 127.066406 187.355469 C 127.066406 187.355469 131.335938 187.355469 131.335938 187.355469 L 129.628906 245.015625 L 126.425781 245.015625 C 126.425781 245.015625 126.214844 222.25 126.214844 222.25 L 115.96875 222.25 C 115.96875 222.25 115.96875 235.015625 115.96875 235.015625 L 113.832031 235.015625 C 113.832031 235.015625 113.832031 219.484375 113.832031 219.484375 L 101.667969 219.484375 C 101.667969 219.695312 101.667969 228.632812 101.667969 228.632812 L 89.929688 228.632812 C 89.929688 228.417969 89.929688 230.121094 89.929688 230.121094 L 103.375 230.121094 C 103.375 230.332031 103.375 221.398438 103.375 221.398438 L 111.914062 221.398438 C 111.914062 221.398438 111.914062 236.929688 111.914062 236.929688 L 117.675781 236.503906 L 117.675781 223.949219 C 117.675781 223.949219 124.292969 223.949219 124.292969 223.949219 L 124.292969 246.503906 C 124.507812 246.503906 131.335938 246.503906 131.335938 246.503906 C 131.976562 226.292969 132.617188 206.292969 132.832031 186.078125 L 132.832031 185.441406 C 132.832031 185.441406 128.773438 185.441406 128.773438 185.441406 L 128.773438 180.332031 C 128.773438 180.332031 130.480469 179.910156 130.480469 179.910156 L 130.480469 177.140625 C 130.695312 177.140625 132.832031 176.929688 132.832031 176.929688 L 132.832031 173.101562 C 132.832031 173.101562 133.683594 173.101562 133.683594 173.101562 L 133.683594 156.292969 C 133.683594 156.292969 132.191406 155.867188 132.191406 155.867188 L 132.191406 155.015625 C 132.191406 155.015625 133.683594 155.015625 133.683594 155.015625 L 133.683594 128.84375 C 133.683594 128.84375 134.539062 128.84375 134.539062 128.84375 L 134.109375 155.652344 L 136.03125 155.652344 C 136.03125 155.652344 136.03125 156.503906 136.03125 156.503906 L 134.539062 156.503906 C 134.539062 156.503906 134.324219 173.949219 134.324219 173.949219 L 135.179688 173.949219 C 135.179688 173.949219 135.179688 177.140625 135.179688 177.140625 L 137.738281 177.78125 L 137.738281 180.546875 C 137.738281 180.546875 139.660156 180.972656 139.660156 180.972656 L 139.660156 185.867188 C 139.660156 185.867188 135.820312 185.867188 135.820312 185.867188 C 136.03125 200.972656 136.886719 215.867188 137.738281 230.757812 C 137.738281 230.972656 142.222656 230.757812 142.222656 230.757812 L 142.222656 247.355469 C 142.222656 247.355469 149.480469 246.929688 149.480469 246.929688 L 149.480469 207.566406 C 149.480469 207.566406 152.46875 207.566406 152.46875 207.566406 L 152.46875 203.101562 C 152.679688 203.101562 155.667969 200.546875 155.667969 200.546875 L 155.027344 189.484375 L 156.523438 190.121094 L 157.164062 202.25 L 157.804688 230.546875 L 164.417969 230.972656 L 163.992188 207.78125 L 170.394531 207.78125 C 170.394531 207.992188 171.464844 224.589844 171.464844 224.589844 L 177.011719 225.226562 L 175.945312 204.375 L 188.324219 203.3125 L 189.605469 237.355469 L 198.785156 237.355469 C 198.785156 237.355469 198.785156 215.867188 198.785156 215.867188 L 204.972656 215.867188 C 204.972656 215.867188 204.972656 225.441406 204.972656 225.441406 L 211.589844 225.441406 C 211.589844 225.226562 210.738281 192.886719 210.738281 192.886719 L 221.835938 192.886719 C 221.835938 193.101562 224.398438 239.695312 224.398438 239.695312 L 285.230469 240.121094 L 285.230469 238.417969 C 285.230469 238.417969 226.105469 237.992188 226.105469 237.992188 Z M 226.105469 237.355469 " fill-opacity="1" fill-rule="evenodd"/></g></svg>