<svg xmlns="http://www.w3.org/2000/svg" xmlns:xlink="http://www.w3.org/1999/xlink" width="500" zoomAndPan="magnify" viewBox="0 0 375 374.999991" height="500" preserveAspectRatio="xMidYMid meet" version="1.0"><defs><clipPath id="bf6cd867c0"><path d="M 38.507812 38.507812 L 336.492188 38.507812 L 336.492188 336.492188 L 38.507812 336.492188 Z M 38.507812 38.507812 " clip-rule="nonzero"/></clipPath><clipPath id="b881fb9b60"><path d="M 187.5 38.507812 C 105.214844 38.507812 38.507812 105.214844 38.507812 187.5 C 38.507812 269.785156 105.214844 336.492188 187.5 336.492188 C 269.785156 336.492188 336.492188 269.785156 336.492188 187.5 C 336.492188 105.214844 269.785156 38.507812 187.5 38.507812 Z M 187.5 38.507812 " clip-rule="nonzero"/></clipPath><clipPath id="0337abef46"><path d="M 38.507812 38.507812 L 336.257812 38.507812 L 336.257812 336.257812 L 38.507812 336.257812 Z M 38.507812 38.507812 " clip-rule="nonzero"/></clipPath><clipPath id="72e7f571da"><path d="M 187.496094 38.507812 C 105.210938 38.507812 38.507812 105.210938 38.507812 187.496094 C 38.507812 269.777344 105.210938 336.480469 187.496094 336.480469 C 269.777344 336.480469 336.480469 269.777344 336.480469 187.496094 C 336.480469 105.210938 269.777344 38.507812 187.496094 38.507812 Z M 187.496094 38.507812 " clip-rule="nonzero"/></clipPath><clipPath id="9c3678a277"><path d="M 44.6875 44.6875 L 330.3125 44.6875 L 330.3125 330.3125 L 44.6875 330.3125 Z M 44.6875 44.6875 " clip-rule="nonzero"/></clipPath><clipPath id="99a6309327"><path d="M 187.5 44.6875 C 108.625 44.6875 44.6875 108.625 44.6875 187.5 C 44.6875 266.375 108.625 330.3125 187.5 330.3125 C 266.375 330.3125 330.3125 266.375 330.3125 187.5 C 330.3125 108.625 266.375 44.6875 187.5 44.6875 Z M 187.5 44.6875 " clip-rule="nonzero"/></clipPath><clipPath id="b9cb75b29f"><path d="M 97.464844 108.75 L 277.464844 108.75 L 277.464844 266.25 L 97.464844 266.25 Z M 97.464844 108.75 " clip-rule="nonzero"/></clipPath></defs><g clip-path="url(#bf6cd867c0)"><g clip-path="url(#b881fb9b60)"><path fill="#ffffff" d="M 38.507812 38.507812 L 336.492188 38.507812 L 336.492188 336.492188 L 38.507812 336.492188 Z M 38.507812 38.507812 " fill-opacity="1" fill-rule="nonzero"/></g></g><g clip-path="url(#0337abef46)"><g clip-path="url(#72e7f571da)"><path stroke-linecap="butt" transform="matrix(0.75, 0, 0, 0.75, 38.509213, 38.509216)" fill="none" stroke-linejoin="miter" d="M 198.649187 -0.00187159 C 88.935638 -0.00187159 -0.00186799 88.935634 -0.00186799 198.649183 C -0.00186799 308.357524 88.935638 397.29503 198.649187 397.29503 C 308.357527 397.29503 397.295033 308.357524 397.295033 198.649183 C 397.295033 88.935634 308.357527 -0.00187159 198.649187 -0.00187159 Z M 198.649187 -0.00187159 " stroke="#000000" stroke-width="2" stroke-opacity="1" stroke-miterlimit="4"/></g></g><g clip-path="url(#9c3678a277)"><g clip-path="url(#99a6309327)"><path fill="#e2bac7" d="M 44.6875 44.6875 L 330.3125 44.6875 L 330.3125 330.3125 L 44.6875 330.3125 Z M 44.6875 44.6875 " fill-opacity="1" fill-rule="nonzero"/></g></g><g clip-path="url(#b9cb75b29f)"><path fill="#231f20" d="M 275.675781 253.125 L 272.332031 191.96875 L 253.085938 191.96875 C 253.085938 191.6875 254.203125 234.414062 254.203125 234.414062 L 250.296875 234.414062 C 250.296875 234.414062 250.296875 222.128906 250.296875 222.128906 L 237.46875 222.128906 C 237.46875 222.128906 237.46875 250.054688 237.46875 250.054688 L 230.21875 250.054688 C 230.21875 250.054688 228.546875 205.371094 228.546875 205.371094 L 207.628906 207.328125 L 209.023438 234.136719 L 206.515625 234.136719 C 206.515625 233.855469 205.121094 212.074219 205.121094 212.074219 L 192.289062 211.515625 L 192.847656 241.953125 L 188.945312 241.953125 C 188.945312 241.953125 188.105469 206.488281 188.105469 206.488281 L 187.269531 189.175781 L 180.578125 185.824219 L 181.414062 203.417969 L 177.507812 206.488281 L 177.507812 211.238281 C 177.230469 211.238281 173.046875 211.238281 173.046875 211.238281 L 173.046875 262.898438 C 173.046875 262.898438 168.304688 262.898438 168.304688 262.898438 L 168.304688 241.117188 C 168.304688 241.117188 162.449219 241.394531 162.449219 241.394531 L 159.660156 191.410156 L 159.660156 186.941406 C 159.660156 186.941406 164.960938 186.941406 164.960938 186.941406 L 164.960938 176.328125 C 164.960938 176.328125 162.730469 175.769531 162.730469 175.769531 L 162.730469 171.863281 C 162.730469 171.863281 159.382812 171.582031 159.382812 171.582031 L 159.382812 167.113281 C 159.382812 167.113281 158.546875 167.113281 158.546875 167.113281 L 158.546875 148.402344 C 158.546875 148.402344 160.496094 148.125 160.496094 148.125 L 161.054688 143.65625 L 158.546875 143.65625 C 158.546875 143.65625 157.988281 108.75 157.988281 108.75 L 157.707031 108.75 C 156.316406 108.75 155.199219 108.75 153.804688 108.75 L 153.527344 108.75 C 153.527344 108.75 153.527344 143.9375 153.527344 143.9375 L 151.015625 143.9375 C 151.015625 143.9375 151.574219 148.402344 151.574219 148.402344 L 153.246094 148.402344 C 153.246094 148.683594 153.246094 167.394531 153.246094 167.394531 L 152.132812 167.394531 C 152.132812 167.394531 152.132812 172.140625 152.132812 172.140625 L 148.785156 172.140625 C 148.785156 172.421875 148.785156 176.328125 148.785156 176.328125 L 146.273438 176.886719 L 146.273438 187.5 C 146.273438 187.5 151.851562 187.5 151.851562 187.5 L 149.621094 263.179688 L 145.4375 263.179688 C 145.4375 263.179688 145.160156 233.296875 145.160156 233.296875 L 131.773438 233.296875 C 131.773438 233.296875 131.773438 250.054688 131.773438 250.054688 L 128.984375 250.054688 C 128.984375 250.054688 128.984375 229.667969 128.984375 229.667969 L 113.085938 229.667969 C 113.085938 229.945312 113.085938 241.675781 113.085938 241.675781 L 97.75 241.675781 C 97.75 241.394531 97.75 243.628906 97.75 243.628906 L 115.320312 243.628906 C 115.320312 243.910156 115.320312 232.179688 115.320312 232.179688 L 126.472656 232.179688 C 126.472656 232.179688 126.472656 252.566406 126.472656 252.566406 L 134.003906 252.007812 L 134.003906 235.53125 C 134.003906 235.53125 142.648438 235.53125 142.648438 235.53125 L 142.648438 265.132812 C 142.929688 265.132812 151.851562 265.132812 151.851562 265.132812 C 152.6875 238.605469 153.527344 212.355469 153.804688 185.824219 L 153.804688 184.988281 C 153.804688 184.988281 148.503906 184.988281 148.503906 184.988281 L 148.503906 178.285156 C 148.503906 178.285156 150.738281 177.726562 150.738281 177.726562 L 150.738281 174.097656 C 151.015625 174.097656 153.804688 173.816406 153.804688 173.816406 L 153.804688 168.789062 C 153.804688 168.789062 154.921875 168.789062 154.921875 168.789062 L 154.921875 146.730469 C 154.921875 146.730469 152.96875 146.171875 152.96875 146.171875 L 152.96875 145.054688 C 152.96875 145.054688 154.921875 145.054688 154.921875 145.054688 L 154.921875 110.703125 C 154.921875 110.703125 156.035156 110.703125 156.035156 110.703125 L 155.476562 145.890625 L 157.988281 145.890625 C 157.988281 145.890625 157.988281 147.007812 157.988281 147.007812 L 156.035156 147.007812 C 156.035156 147.007812 155.757812 169.90625 155.757812 169.90625 L 156.871094 169.90625 C 156.871094 169.90625 156.871094 174.097656 156.871094 174.097656 L 160.21875 174.933594 L 160.21875 178.5625 C 160.21875 178.5625 162.730469 179.121094 162.730469 179.121094 L 162.730469 185.546875 C 162.730469 185.546875 157.707031 185.546875 157.707031 185.546875 C 157.988281 205.371094 159.101562 224.921875 160.21875 244.46875 C 160.21875 244.746094 166.074219 244.46875 166.074219 244.46875 L 166.074219 266.25 C 166.074219 266.25 175.558594 265.691406 175.558594 265.691406 L 175.558594 214.027344 C 175.558594 214.027344 179.460938 214.027344 179.460938 214.027344 L 179.460938 208.164062 C 179.742188 208.164062 183.644531 204.8125 183.644531 204.8125 L 182.808594 190.292969 L 184.761719 191.128906 L 185.597656 207.046875 L 186.433594 244.1875 L 195.078125 244.746094 L 194.523438 214.308594 L 202.886719 214.308594 C 202.886719 214.585938 204.28125 236.371094 204.28125 236.371094 L 211.535156 237.207031 L 210.140625 209.839844 L 226.316406 208.445312 L 227.988281 253.125 L 239.980469 253.125 C 239.980469 253.125 239.980469 224.921875 239.980469 224.921875 L 248.066406 224.921875 C 248.066406 224.921875 248.066406 237.488281 248.066406 237.488281 L 256.714844 237.488281 C 256.714844 237.207031 255.597656 194.761719 255.597656 194.761719 L 270.097656 194.761719 C 270.097656 195.039062 273.445312 256.195312 273.445312 256.195312 L 352.929688 256.753906 L 352.929688 254.519531 C 352.929688 254.519531 275.675781 253.960938 275.675781 253.960938 Z M 275.675781 253.125 " fill-opacity="1" fill-rule="evenodd"/></g></svg>