<svg xmlns="http://www.w3.org/2000/svg" xmlns:xlink="http://www.w3.org/1999/xlink" width="500" zoomAndPan="magnify" viewBox="0 0 375 374.999991" height="500" preserveAspectRatio="xMidYMid meet" version="1.0"><defs><clipPath id="f9e556c84f"><path d="M 79 48.609375 L 302 48.609375 L 302 326.109375 L 79 326.109375 Z M 79 48.609375 " clip-rule="nonzero"/></clipPath></defs><path fill="#dbc1ac" d="M 293.207031 188.269531 C 288.472656 179.882812 281.367188 174.238281 272.660156 171.941406 C 265.382812 170.03125 258.097656 170.75 251.980469 172.285156 L 251.980469 158.546875 C 251.980469 140.613281 213.863281 126.074219 166.847656 126.074219 C 119.832031 126.078125 81.71875 140.613281 81.71875 158.554688 L 81.71875 291.238281 C 81.71875 309.171875 119.832031 323.714844 166.851562 323.714844 C 213.871094 323.714844 251.984375 309.175781 251.984375 291.238281 L 251.984375 266.453125 C 271.242188 260.925781 286.933594 247.84375 294.402344 230.886719 C 300.761719 216.421875 300.328125 200.890625 293.207031 188.269531 Z M 271.609375 220.851562 C 267.996094 229.0625 260.945312 235.824219 251.980469 239.96875 L 251.980469 198.570312 C 255.714844 196.886719 261.855469 194.820312 266.367188 196.035156 C 267.8125 196.421875 269.703125 197.285156 271.527344 200.511719 C 274.753906 206.226562 274.78125 213.640625 271.609375 220.851562 Z M 271.609375 220.851562 " fill-opacity="1" fill-rule="nonzero"/><path fill="#a78682" d="M 229.09375 154.898438 C 229.09375 163.835938 201.226562 171.078125 166.851562 171.078125 C 132.472656 171.078125 104.605469 163.835938 104.605469 154.898438 C 104.605469 150.949219 110.054688 147.332031 119.105469 144.519531 C 113.898438 137.09375 107.609375 125.210938 107.003906 110.53125 C 105.957031 85.132812 119.875 84.785156 124.402344 85.132812 C 128.921875 85.480469 134.84375 92.09375 135.1875 106.359375 C 135.535156 120.625 142.84375 122.710938 147.015625 122.367188 C 151.191406 122.019531 156.757812 111.578125 165.804688 113.320312 C 174.851562 115.058594 176.59375 120.972656 179.375 128.28125 C 180.832031 132.105469 182.253906 136.164062 183.992188 139.335938 C 190.929688 139.855469 197.375 140.671875 203.089844 141.742188 C 205.511719 140.417969 208.136719 139.28125 211.730469 139.410156 C 215.277344 139.542969 217.464844 142.5 218.847656 146 C 225.324219 148.558594 229.09375 151.617188 229.09375 154.898438 Z M 114.132812 74.351562 C 120.761719 74.351562 126.136719 68.972656 126.136719 62.34375 C 126.136719 55.714844 120.761719 50.34375 114.132812 50.34375 C 107.5 50.34375 102.125 55.71875 102.125 62.347656 C 102.125 68.980469 107.5 74.351562 114.132812 74.351562 Z M 114.132812 74.351562 " fill-opacity="1" fill-rule="nonzero"/><path fill="#ffc8dd" d="M 138.480469 260.851562 C 137.605469 264.648438 130.125 266.167969 121.773438 264.234375 C 113.417969 262.304688 107.363281 257.664062 108.246094 253.863281 C 109.121094 250.0625 116.601562 248.546875 124.953125 250.476562 C 133.304688 252.40625 139.363281 257.050781 138.480469 260.851562 Z M 232.816406 253.863281 C 231.941406 250.0625 224.460938 248.546875 216.109375 250.476562 C 207.757812 252.402344 201.699219 257.050781 202.578125 260.851562 C 203.460938 264.648438 210.9375 266.167969 219.289062 264.234375 C 227.636719 262.308594 233.695312 257.664062 232.816406 253.863281 Z M 232.816406 253.863281 " fill-opacity="1" fill-rule="nonzero"/><path fill="#ffffff" d="M 122.722656 97.753906 C 122.722656 100.109375 120.816406 102.019531 118.457031 102.019531 C 116.097656 102.019531 114.1875 100.109375 114.1875 97.753906 C 114.1875 95.394531 116.097656 93.484375 118.457031 93.484375 C 120.816406 93.484375 122.722656 95.398438 122.722656 97.753906 Z M 118.109375 54.402344 C 115.75 54.402344 113.84375 56.308594 113.84375 58.667969 C 113.84375 61.027344 115.75 62.9375 118.109375 62.9375 C 120.46875 62.9375 122.378906 61.027344 122.378906 58.667969 C 122.378906 56.308594 120.46875 54.402344 118.109375 54.402344 Z M 182.386719 186 C 174.71875 186.691406 167.152344 187.484375 159.441406 187.402344 C 152.148438 187.328125 144.832031 186.757812 137.605469 185.792969 C 130.234375 184.804688 122.898438 183.78125 115.761719 181.59375 C 108.414062 179.34375 101.453125 178 94.472656 174.792969 C 91.5 173.425781 90.777344 176.03125 93.777344 177.578125 C 100.816406 181.203125 105.921875 184.535156 113.449219 186.992188 C 120.8125 189.394531 128.292969 191.96875 135.910156 193.425781 C 151.445312 196.410156 167.871094 196.972656 183.597656 194.921875 C 192.132812 193.808594 190.96875 185.230469 182.386719 186 Z M 206.335938 186.378906 C 205.375 184.691406 203.332031 183.691406 201.21875 183.839844 C 198.421875 184.03125 193.707031 186.382812 194.21875 189.855469 C 194.59375 192.378906 198.242188 194.015625 200.527344 193.761719 C 203.199219 193.46875 206.222656 192.496094 206.8125 189.488281 C 207.042969 188.316406 206.835938 187.253906 206.335938 186.378906 Z M 289.945312 196.511719 C 289.941406 196.4375 289.9375 196.355469 289.933594 196.28125 C 289.542969 191.367188 286.492188 186.15625 282.675781 183.144531 C 280.542969 181.464844 273.59375 177.527344 271.011719 179.894531 C 269.871094 180.941406 269.917969 183.597656 271.691406 183.984375 C 278.628906 185.488281 280.976562 192.550781 283.132812 198.355469 C 284.894531 203.097656 290.121094 200.957031 289.945312 196.511719 Z M 292.6875 208.753906 C 292.429688 207.257812 291.605469 206.003906 289.894531 205.621094 C 287.117188 205.003906 284.523438 208.085938 284.816406 210.726562 C 285.5625 217.410156 293.863281 215.535156 292.6875 208.753906 Z M 124.378906 126.578125 C 123.507812 123.269531 123.160156 115.605469 122.988281 109.164062 C 122.8125 102.71875 114.625 104.457031 115.84375 112.472656 C 117.0625 120.484375 122.113281 126.578125 122.113281 126.578125 C 124.207031 129.367188 125.253906 129.886719 124.378906 126.578125 Z M 124.378906 126.578125 " fill-opacity="1" fill-rule="nonzero"/><g clip-path="url(#f9e556c84f)"><path fill="#000000" d="M 295.53125 186.960938 C 290.433594 177.933594 282.761719 171.851562 273.335938 169.371094 C 267.589844 167.859375 261.316406 167.730469 254.644531 168.976562 L 254.644531 158.554688 C 254.644531 140.738281 223.132812 126.425781 180.726562 123.835938 C 180.402344 123.023438 180.058594 122.199219 179.679688 121.359375 C 178.613281 118.988281 177.125 116.402344 174.792969 114.472656 C 172.507812 112.488281 169.675781 111.414062 167.019531 110.863281 C 165.6875 110.5625 164.050781 110.445312 162.566406 110.601562 C 161.8125 110.675781 161.078125 110.863281 160.347656 111.027344 C 159.664062 111.28125 158.929688 111.472656 158.296875 111.796875 C 155.679688 113.003906 153.5625 114.707031 151.714844 116.378906 L 149.050781 118.777344 C 148.226562 119.480469 147.316406 120.097656 146.9375 120.199219 C 146.90625 120.261719 146.570312 120.265625 146.355469 120.292969 C 146.113281 120.324219 145.875 120.300781 145.628906 120.308594 C 145.144531 120.296875 144.664062 120.242188 144.191406 120.140625 C 143.246094 119.949219 142.347656 119.570312 141.53125 119.03125 C 140.699219 118.503906 140.015625 117.722656 139.363281 116.902344 C 138.777344 116.015625 138.238281 115.058594 137.835938 114.003906 C 137.03125 111.90625 136.53125 109.589844 136.367188 107.226562 C 136.140625 104.835938 135.984375 102.28125 135.484375 99.851562 C 134.992188 97.410156 134.371094 94.972656 133.34375 92.667969 C 132.296875 90.386719 131.042969 88.105469 129.03125 86.375 C 128.042969 85.515625 126.910156 84.722656 125.527344 84.347656 C 125.179688 84.269531 124.824219 84.207031 124.46875 84.144531 L 123.511719 84.0625 C 122.871094 84.042969 122.226562 84.015625 121.578125 84.042969 C 118.988281 84.078125 116.320312 84.746094 113.972656 86.125 C 111.628906 87.496094 109.632812 89.539062 108.316406 91.875 C 107.914062 92.433594 107.664062 93.042969 107.382812 93.648438 C 107.117188 94.257812 106.785156 94.855469 106.585938 95.480469 C 106.222656 96.730469 105.664062 97.96875 105.488281 99.246094 C 104.933594 101.792969 104.648438 104.347656 104.601562 106.886719 L 104.605469 110.6875 C 104.699219 111.957031 104.835938 113.222656 104.953125 114.484375 C 105.566406 119.527344 106.820312 124.464844 108.699219 129.144531 C 109.035156 129.988281 109.398438 130.820312 109.769531 131.648438 C 90.871094 138.042969 79.046875 147.640625 79.046875 158.554688 L 79.046875 291.238281 C 79.046875 310.945312 117.613281 326.378906 166.847656 326.378906 C 216.082031 326.378906 254.644531 310.945312 254.644531 291.238281 L 254.644531 268.433594 C 273.960938 262.335938 289.273438 249.132812 296.835938 231.960938 C 303.546875 216.71875 303.070312 200.316406 295.53125 186.960938 Z M 291.953125 229.804688 C 284.785156 246.09375 269.945312 258.511719 251.246094 263.882812 L 249.3125 264.4375 L 249.3125 291.234375 C 249.3125 305.628906 216.179688 321.039062 166.851562 321.039062 C 117.523438 321.039062 84.382812 305.632812 84.382812 291.238281 L 84.382812 158.554688 C 84.382812 150.550781 94.628906 142.238281 112.191406 136.433594 C 113.324219 138.453125 114.566406 140.40625 115.910156 142.273438 C 116.023438 142.429688 116.136719 142.578125 116.25 142.734375 C 114.214844 143.53125 112.203125 144.417969 110.242188 145.519531 C 108.976562 146.21875 107.738281 147.035156 106.546875 148.007812 C 105.378906 148.988281 104.222656 150.15625 103.40625 151.769531 C 102.582031 153.375 102.441406 155.625 103.25 157.285156 C 103.988281 158.980469 105.199219 160.082031 106.375 161.019531 C 108.78125 162.828125 111.382812 163.9375 113.988281 164.886719 C 119.222656 166.726562 124.574219 167.796875 129.9375 168.605469 C 135.304688 169.402344 140.699219 169.878906 146.085938 170.160156 C 140.738281 169.4375 135.421875 168.515625 130.1875 167.296875 C 124.96875 166.066406 119.789062 164.566406 114.984375 162.410156 C 112.609375 161.328125 110.285156 160.058594 108.507812 158.457031 C 107.644531 157.660156 106.90625 156.757812 106.65625 155.917969 C 106.371094 155.082031 106.519531 154.398438 106.949219 153.621094 C 107.9375 152.054688 110.132812 150.683594 112.371094 149.671875 C 114.648438 148.632812 117.113281 147.835938 119.613281 147.152344 L 119.53125 146.878906 C 121.492188 149.164062 123.613281 151.289062 125.949219 153.183594 L 126.316406 152.792969 C 120.316406 145.164062 115.527344 136.699219 112.582031 127.71875 C 111.125 123.230469 110.132812 118.625 109.65625 113.980469 C 109.191406 109.347656 109.230469 104.574219 109.855469 100.085938 C 109.957031 98.925781 110.304688 97.882812 110.519531 96.765625 C 110.632812 96.207031 110.871094 95.71875 111.039062 95.1875 C 111.230469 94.667969 111.378906 94.125 111.648438 93.660156 C 112.5 91.625 113.863281 89.902344 115.582031 88.589844 C 117.300781 87.265625 119.460938 86.484375 121.730469 86.226562 C 122.296875 86.136719 122.875 86.136719 123.449219 86.117188 L 124.316406 86.132812 L 125.0625 86.226562 C 126.0625 86.4375 127.058594 86.96875 127.910156 87.695312 C 129.636719 89.132812 130.933594 91.167969 131.851562 93.316406 C 132.757812 95.488281 133.375 97.800781 133.695312 100.160156 C 133.878906 101.335938 133.957031 102.527344 134.050781 103.714844 L 134.109375 107.34375 C 134.117188 109.847656 134.347656 112.402344 135.0625 114.9375 C 135.753906 117.457031 137.054688 120.027344 139.308594 121.925781 C 140.429688 122.851562 141.753906 123.582031 143.167969 124.011719 C 143.875 124.226562 144.601562 124.363281 145.332031 124.445312 C 145.695312 124.464844 146.066406 124.515625 146.433594 124.507812 C 146.820312 124.492188 147.109375 124.539062 147.667969 124.421875 C 149.691406 124.019531 150.785156 123.089844 151.875 122.320312 L 154.777344 119.980469 C 156.617188 118.484375 158.421875 117.191406 160.28125 116.4375 C 162.167969 115.644531 163.90625 115.597656 165.847656 116.082031 C 167.925781 116.589844 169.765625 117.398438 171.132812 118.683594 C 173.921875 121.15625 175.324219 125.769531 177.109375 130.351562 C 178 132.605469 178.886719 134.921875 179.9375 137.246094 C 181.015625 139.558594 182.160156 141.945312 184.128906 144.148438 C 185.113281 145.234375 186.34375 146.304688 187.957031 146.972656 C 188.371094 147.117188 188.789062 147.25 189.207031 147.375 L 190.253906 147.550781 C 190.9375 147.691406 191.652344 147.757812 192.378906 147.769531 C 193.824219 147.855469 195.300781 147.609375 196.6875 147.242188 C 198.0625 146.824219 199.34375 146.246094 200.484375 145.597656 C 202.78125 144.328125 204.636719 142.894531 206.644531 142.035156 C 207.640625 141.59375 208.667969 141.269531 209.734375 141.09375 C 210.8125 140.917969 211.953125 140.800781 212.808594 140.984375 C 214.660156 141.335938 216.308594 143.023438 217.46875 145.019531 C 218.636719 147.039062 219.449219 149.332031 220.167969 151.65625 L 220.691406 151.546875 C 220.433594 149.101562 219.964844 146.648438 219.023438 144.265625 C 218.539062 143.082031 217.929688 141.90625 217.058594 140.832031 C 216.207031 139.765625 215 138.839844 213.570312 138.355469 C 212.886719 138.09375 212.070312 137.988281 211.414062 137.949219 C 210.746094 137.945312 210.070312 137.851562 209.394531 137.941406 C 208.035156 138.011719 206.683594 138.300781 205.402344 138.71875 C 202.820312 139.550781 200.621094 140.914062 198.574219 141.847656 C 196.527344 142.800781 194.625 143.25 192.644531 143.007812 C 192.148438 142.976562 191.65625 142.90625 191.152344 142.765625 L 190.40625 142.601562 C 190.246094 142.523438 190.089844 142.460938 189.925781 142.402344 C 189.292969 142.09375 188.648438 141.507812 188.046875 140.757812 C 186.84375 139.246094 185.84375 137.171875 184.949219 135.046875 C 184.183594 133.203125 183.484375 131.273438 182.78125 129.304688 C 223.179688 132.1875 249.308594 145.769531 249.308594 158.554688 L 249.308594 175.707031 L 252.625 174.875 C 259.652344 173.113281 266.160156 172.992188 271.972656 174.523438 C 279.96875 176.628906 286.507812 181.835938 290.882812 189.582031 C 297.585938 201.460938 297.980469 216.121094 291.953125 229.804688 Z M 267.054688 193.457031 C 261.472656 191.960938 254.519531 194.496094 250.878906 196.140625 L 249.3125 196.851562 L 249.3125 244.144531 L 253.101562 242.390625 C 262.773438 237.914062 270.214844 230.648438 274.050781 221.925781 C 277.566406 213.9375 277.496094 205.65625 273.851562 199.199219 C 271.511719 195.066406 268.855469 193.945312 267.054688 193.457031 Z M 269.164062 219.777344 C 266.363281 226.144531 261.285156 231.640625 254.644531 235.558594 L 254.644531 200.335938 C 259.058594 198.566406 263.105469 197.921875 265.671875 198.613281 C 266.332031 198.789062 267.695312 199.160156 269.199219 201.824219 C 272.011719 206.800781 272 213.339844 269.164062 219.777344 Z M 229.09375 154.898438 C 229.09375 161.292969 214.8125 166.824219 194.089844 169.449219 C 194.089844 169.449219 215.214844 165.28125 222.289062 159.945312 C 229.363281 154.609375 225.464844 149.445312 225.464844 149.445312 C 227.8125 151.148438 229.09375 152.984375 229.09375 154.898438 Z M 99.464844 62.34375 C 99.441406 58.5 101.175781 54.683594 104.011719 52.222656 C 106.839844 49.738281 110.644531 48.605469 114.132812 49 C 117.632812 49.367188 120.789062 51.121094 122.878906 53.59375 C 125.007812 56.054688 126.148438 59.199219 126.136719 62.34375 C 126.152344 59.191406 124.703125 56.085938 122.359375 54.117188 C 120.019531 52.121094 116.925781 51.289062 114.132812 51.679688 C 111.324219 52.054688 108.886719 53.511719 107.273438 55.492188 C 105.640625 57.464844 104.789062 59.890625 104.789062 62.347656 C 104.785156 64.800781 105.628906 67.234375 107.265625 69.214844 C 108.875 71.199219 111.320312 72.65625 114.132812 73.027344 C 116.929688 73.414062 120.023438 72.578125 122.363281 70.582031 C 124.703125 68.605469 126.148438 65.503906 126.136719 62.347656 C 126.148438 65.496094 125.003906 68.636719 122.878906 71.09375 C 120.785156 73.566406 117.632812 75.3125 114.136719 75.679688 C 110.652344 76.070312 106.851562 74.945312 104.027344 72.464844 C 101.1875 69.996094 99.441406 66.1875 99.464844 62.34375 Z M 145.273438 238.234375 C 145.273438 243.421875 141.066406 247.628906 135.878906 247.628906 C 130.691406 247.628906 126.484375 243.421875 126.484375 238.234375 C 126.484375 233.046875 130.691406 228.839844 135.878906 228.839844 C 141.066406 228.839844 145.273438 233.046875 145.273438 238.234375 Z M 215.5625 238.234375 C 215.5625 243.421875 211.355469 247.628906 206.167969 247.628906 C 200.976562 247.628906 196.773438 243.421875 196.773438 238.234375 C 196.773438 233.046875 200.976562 228.839844 206.167969 228.839844 C 211.355469 228.839844 215.5625 233.046875 215.5625 238.234375 Z M 193.496094 258.824219 C 193.875 262.246094 190.441406 265.757812 188.171875 267.902344 C 185.535156 270.390625 182.371094 272.378906 178.90625 273.46875 C 167.4375 277.082031 153.378906 272.554688 147.6875 261.644531 C 147.070312 260.457031 146.710938 259.265625 148.105469 258.460938 C 149.757812 257.511719 150.773438 258.816406 151.863281 259.835938 C 153.023438 260.921875 154.273438 261.917969 155.59375 262.808594 C 158.097656 264.5 160.855469 265.816406 163.75 266.695312 C 169.171875 268.347656 174.757812 267.386719 179.957031 265.347656 C 182.164062 264.480469 184.316406 263.414062 186.226562 261.996094 C 187.457031 261.085938 188.53125 260.089844 189.394531 258.820312 C 189.660156 258.429688 190.023438 258.0625 190.425781 257.777344 C 191.664062 256.894531 193.269531 256.753906 193.496094 258.824219 Z M 193.496094 258.824219 " fill-opacity="1" fill-rule="nonzero"/></g></svg>